<svg xmlns="http://www.w3.org/2000/svg" width="100" height="101" viewBox="0 0 100 101">
<style>.a{fill:#53A8E2;}.b{fill:#AFE2FF;}</style>
	<g class="a">
		<path d="M82.4 53.8L82.4 79.5C82.4 80.5 83.3 81.3 84.3 81.3 85.3 81.3 86.2 80.5 86.2 79.5L86.2 52.3 85.2 52.3 85.2 79.5C85.2 79.9 84.8 80.3 84.3 80.3 83.8 80.3 83.4 79.9 83.4 79.5L83.4 53.8 82.4 53.8Z"/><path d="M3.7 96L3.7 39.8 46.7 39.8 46.7 38.8 2.7 38.8 2.7 97 83.9 97 83.9 84.1C83.9 83.7 84.3 83.4 84.8 83.4 85.3 83.4 85.7 83.7 85.7 84.1L85.7 98.2C85.7 98.6 85.3 99 84.8 99L1.9 99C1.4 99 1 98.6 1 98.2L1 27.8C1 27.4 1.4 27 1.9 27L41.6 27 41.6 26 1.9 26C0.8 26 0 26.8 0 27.8L0 98.2C0 99.2 0.8 100 1.9 100L84.8 100C85.8 100 86.7 99.2 86.7 98.2L86.7 84.1C86.7 83.2 85.8 82.4 84.8 82.4 83.8 82.4 82.9 83.2 82.9 84.1L82.9 96 3.7 96Z"/></g><path d="M15.1 32C14.3 32 13.6 32.6 13.6 33.3 13.6 34.1 14.3 34.7 15.1 34.7 15.9 34.7 16.5 34.1 16.5 33.3 16.5 32.6 15.9 32 15.1 32L15.1 32 15.1 32 15.1 32 15.1 32Z" class="a"/><path d="M7.3 32C6.5 32 5.9 32.6 5.9 33.3 5.9 34.1 6.5 34.7 7.3 34.7 8.1 34.7 8.8 34.1 8.8 33.3 8.8 32.6 8.1 32 7.3 32L7.3 32 7.3 32 7.3 32 7.3 32Z" class="a"/><path d="M22.8 32C22 32 21.3 32.6 21.3 33.3 21.3 34.1 22 34.7 22.8 34.7 23.6 34.7 24.3 34.1 24.3 33.3 24.3 32.6 23.6 32 22.8 32L22.8 32 22.8 32 22.8 32 22.8 32Z" class="a"/><path d="M52.4 78.1C51.9 77.6 51.1 77.6 50.6 78.1L43.9 84.6C43.4 84.3 42.8 84.2 42.2 84.2 40.1 84.2 38.4 85.8 38.4 87.8 38.4 89.8 40.1 91.4 42.2 91.4 44.3 91.4 46 89.8 46 87.8 46 87.3 45.9 86.7 45.6 86.3L52.4 79.8C52.9 79.3 52.9 78.6 52.4 78.1L52.4 78.1 52.4 78.1 52.4 78.1 52.4 78.1 52.4 78.1Z" class="a"/><path d="M58.6 87.8C58.6 79.2 51.3 72.2 42.2 72.2 33.2 72.2 25.8 79.2 25.8 87.8 25.8 88.8 25 89.5 24.1 89.5L15.1 89.5C14.1 89.5 13.3 88.8 13.3 87.8 13.3 80.5 16.3 73.6 21.6 68.5 21.7 68.4 21.7 68.3 21.8 68.3 21.8 68.2 21.9 68.2 21.9 68.2 27.3 63.1 34.5 60.2 42.2 60.2 49.9 60.2 57.1 63.1 62.5 68.1 62.5 68.2 62.6 68.2 62.7 68.3 62.7 68.3 62.8 68.4 62.8 68.4 68.1 73.5 71.1 80.4 71.1 87.7 71.1 87.7 71.1 87.8 71.1 87.8 71.1 88.8 70.3 89.5 69.4 89.5L60.4 89.5C59.4 89.5 58.6 88.8 58.6 87.8ZM59.6 87.8C59.6 88.2 60 88.5 60.4 88.5L69.4 88.5C69.8 88.5 70.1 88.2 70.1 87.8 70.1 87.8 70.1 87.8 70.1 87.7 70.1 80.7 67.2 74.1 62 69.1 62 69 62 69 62 69 61.9 69 61.9 69 61.8 68.9 56.6 64 49.7 61.2 42.2 61.2 34.8 61.2 27.8 64 22.6 68.9 22.5 69 22.4 69 22.4 69.1 17.2 74.1 14.3 80.7 14.3 87.8 14.3 88.2 14.6 88.5 15.1 88.5L24.1 88.5C24.5 88.5 24.8 88.2 24.8 87.8 24.8 78.6 32.6 71.2 42.2 71.2 51.8 71.2 59.6 78.6 59.6 87.8Z" class="a"/><path d="M29.4 73.9L24.8 69.5C29.1 65.8 34.8 63.4 41 63.1L41 69.3C36.6 69.6 32.5 71.3 29.4 73.9L29.4 73.9 29.4 73.9 29.4 73.9 29.4 73.9 29.4 73.9Z" class="b"/><path d="M43.5 63.1C49.7 63.4 55.3 65.8 59.6 69.5L55 73.9C51.9 71.3 47.9 69.6 43.5 69.3L43.5 63.1 43.5 63.1 43.5 63.1 43.5 63.1 43.5 63.1 43.5 63.1Z" class="b"/><path d="M61.6 86.6C61.3 82.4 59.6 78.6 56.8 75.6L61.4 71.2C65.3 75.3 67.8 80.7 68.1 86.6L61.6 86.6 61.6 86.6 61.6 86.6 61.6 86.6 61.6 86.6 61.6 86.6Z" class="b"/><path d="M22.8 86.6L16.4 86.6C16.7 80.7 19.1 75.3 23.1 71.2L27.6 75.6C24.9 78.6 23.1 82.4 22.8 86.6L22.8 86.6 22.8 86.6 22.8 86.6 22.8 86.6Z" class="b"/><path d="M85.8 18.5C91.3 18.5 95.8 22.7 95.8 27.9 95.8 33.1 91.3 37.3 85.8 37.3L58 37.3C53.4 37.3 49.6 33.8 49.6 29.4 49.6 25.2 53.2 21.7 57.6 21.6 58.9 15.4 64.6 11.1 71.4 11.1 76.7 11.1 81.8 14.1 84 18.6 84.6 18.6 85.2 18.5 85.8 18.5ZM85.8 19.5C85.1 19.5 84.5 19.6 83.9 19.7L83.5 19.8 83.3 19.4C81.3 15 76.5 12.1 71.4 12.1 64.9 12.1 59.6 16.3 58.5 22.1L58.5 22.5 58 22.5C53.9 22.5 50.6 25.6 50.6 29.4 50.6 33.2 53.9 36.3 58 36.3L85.8 36.3C90.8 36.3 94.8 32.5 94.8 27.9 94.8 23.3 90.8 19.5 85.8 19.5Z" class="b"/><path d="M93.4 27.9C93.4 31.8 90 35 85.8 35L58 35C54.7 35 52 32.5 52 29.4 52 26.3 54.7 23.8 58 23.8 58.2 23.8 58.4 23.8 58.7 23.9L59.7 24 59.8 23.1C60.4 17.5 65.4 13.4 71.4 13.4 76.2 13.4 80.6 16.3 82.3 20.6L82.6 21.4 83.5 21.1C84.2 20.9 85 20.8 85.8 20.8 90 20.8 93.4 24 93.4 27.9L93.4 27.9Z" fill="#B1E2FF"/><g transform="translate(60.679395 39.616751)" class="b"><polygon points="6.9 6.4 6.9 0 2.3 0 2.3 6.4 0 6.4 4.6 11.4 9.1 6.4"/><polygon points="17.3 5 17.3 11.4 21.9 11.4 21.9 5 24.1 5 19.6 0 15 5"/>
	</g>
</svg>