<svg xmlns="http://www.w3.org/2000/svg" width="100" height="100" viewBox="0 0 100 100">
	<style>.a{fill:#53A8E2;}.b{fill:#87BDE2;}.c{fill:#B5E2FF;}</style>
	<g fill="none">
		<path d="M82 7L96 7C98 7 100 9 100 11L100 81C100 84 98 86 96 86L92 86C90 86 90 85 90 84 90 82 90 81 92 81L96 81C96 81 96 58 96 11 96 11 91 11 82 11L82 18C82 19 81 20 80 20 79 20 78 19 78 18L78 4 22 4 22 68 27 68 27 56C27 55 28 54 29 54L54 54C55 54 56 55 56 56L56 68 68 68C69 68 70 69 70 71 70 72 69 73 68 73L9 73C7 73 7 72 7 71 7 69 7 68 9 68L18 68 18 11 4 11C4 11 4 35 4 81 4 81 25 81 68 81 69 81 70 82 70 84 70 85 69 86 68 86L62 86 62 96 69 96C70 96 71 97 71 98 71 99 70 100 69 100L24 100C23 100 22 99 22 98 22 97 23 96 24 96L38 96 38 86 4 86C2 86 0 84 0 81L0 11C0 9 2 7 4 7L18 7 18 2C18 1 19 0 20 0L80 0C81 0 82 1 82 2L82 7ZM81 2C81 1 80 1 80 1L20 1C20 1 19 1 19 2L19 8 4 8C2 8 1 9 1 11L1 81C1 83 2 85 4 85L39 85 39 97 24 97C23 97 23 97 23 98 23 99 23 99 24 99L69 99C70 99 70 99 70 98 70 97 70 97 69 97L61 97 61 85 68 85C68 85 69 84 69 84 69 83 68 82 68 82L4 82C4 82 3 82 3 81L3 11C3 11 4 10 4 10L19 10 19 69 9 69C8 69 8 70 8 71 8 71 8 72 9 72L68 72C68 72 69 71 69 71 69 70 68 69 68 69L55 69 55 56C55 55 54 55 54 55L29 55C28 55 28 55 28 56L28 69 21 69 21 3 79 3 79 18C79 19 79 19 80 19 80 19 81 19 81 18L81 10 96 10C96 10 97 11 97 11L97 81C97 82 96 82 96 82L92 82C91 82 91 83 91 84 91 84 91 85 92 85L96 85C98 85 99 83 99 81L99 11C99 9 98 8 96 8L81 8 81 2Z" class="a"/><polygon points="31 58 53 58 53 69 31 69 31 58" fill="#B8E2FE"/><path d="M30 24L32 24 32 23 30 23 30 24ZM34 24L36 24 36 23 34 23 34 24ZM38 24L40 24 40 23 38 23 38 24ZM42 24L44 24 44 23 42 23 42 24ZM46 24L48 24 48 23 46 23 46 24ZM50 24L52 24 52 23 50 23 50 24ZM54 24L56 24 56 23 54 23 54 24ZM58 24L60 24 60 23 58 23 58 24ZM62 24L64 24 64 23 62 23 62 24ZM66 24L68 24 68 23 66 23 66 24ZM70 24L72 24 72 23 70 23 70 24ZM74 24C74 23 75 23 75 22L75 22 74 22 74 22C74 23 73 23 73 23L74 24ZM75 20L75 18 74 18 74 20 75 20ZM75 16L75 14 74 14 74 16 75 16ZM75 12L75 11C75 10 74 10 74 9L73 10C73 10 74 11 74 11L74 12 75 12ZM71 9L69 9 69 10 71 10 71 9ZM67 9L65 9 65 10 67 10 67 9ZM63 9L61 9 61 10 63 10 63 9ZM59 9L57 9 57 10 59 10 59 9ZM55 9L53 9 53 10 55 10 55 9ZM51 9L49 9 49 10 51 10 51 9ZM47 9L45 9 45 10 47 10 47 9ZM43 9L41 9 41 10 43 10 43 9ZM39 9L37 9 37 10 39 10 39 9ZM35 9L33 9 33 10 35 10 35 9ZM31 9L30 9C29 9 29 9 29 9L29 10C29 10 30 10 30 10L31 10 31 9ZM27 11C27 11 27 11 27 11L27 13 28 13 28 11C28 11 28 11 28 11L27 11ZM27 15L27 17 28 17 28 15 27 15ZM27 19L27 21 28 21 28 19 27 19ZM28 23C28 24 29 24 30 24L30 23C29 23 29 23 29 23L28 23Z" class="a"/><polygon points="31 13 71 13 71 21 31 21 31 13" fill="#B7E2FF"/><path d="M72 27L30 27C29 27 28 28 28 29 28 29 29 30 30 30L72 30C73 30 74 29 74 29 74 28 73 27 72 27L72 27 72 27 72 27Z" class="b"/><path d="M55 35L30 35C29 35 28 36 28 37 28 38 29 39 30 39L55 39C56 39 56 38 56 37 56 36 56 35 55 35L55 35 55 35Z" class="c"/><path d="M69 35L61 35C60 35 60 36 60 37 60 38 60 39 61 39L69 39C70 39 71 38 71 37 71 36 70 35 69 35L69 35 69 35Z" class="c"/><path d="M55 42L30 42C29 42 28 42 28 43 28 44 29 45 30 45L55 45C56 45 56 44 56 43 56 42 56 42 55 42L55 42 55 42Z" class="c"/><path d="M69 42L61 42C60 42 60 42 60 43 60 44 60 45 61 45L69 45C70 45 71 44 71 43 71 42 70 42 69 42L69 42 69 42Z" class="c"/><path d="M55 48L30 48C29 48 28 49 28 50 28 50 29 51 30 51L55 51C56 51 56 50 56 50 56 49 56 48 55 48L55 48 55 48Z" class="c"/><path d="M69 48L61 48C60 48 60 49 60 50 60 50 60 51 61 51L69 51C70 51 71 50 71 50 71 49 70 48 69 48L69 48 69 48Z" class="b"/><path d="M80 99C76 89 74 85 74 85 74 84 74 84 74 84 74 84 74 84 74 84 74 84 74 84 74 84L74 30C74 25 77 22 82 22 86 22 90 25 90 30 90 66 90 84 90 84 90 84 90 84 89 84 89 84 89 84 89 84 89 84 89 84 89 85L84 99C83 99 83 100 82 100 81 100 80 99 80 99ZM83 98C87 89 88 84 88 84 88 84 88 84 89 84 89 84 89 84 89 84L89 30C89 26 85 23 82 23 78 23 75 26 75 30 75 66 75 84 75 84 75 84 75 84 75 84 75 84 75 84 75 84L81 98C81 99 81 99 82 99 82 99 83 99 83 98Z" class="a"/><path d="M78 38L78 82 86 82 86 38 78 38ZM87 37L87 83 77 83 77 37 87 37Z" class="a"/><path d="M82 92L85 85 79 85 82 92ZM86 84L82 94 78 84 86 84Z" class="a"/><path d="M78 34L86 34 86 30C86 28 84 26 82 26 80 26 78 28 78 30L78 34ZM82 25C84 25 87 28 87 30L87 35 77 35 77 30C77 28 79 25 82 25Z" class="a"/>
	</g>
</svg>