<svg xmlns="http://www.w3.org/2000/svg" width="100" height="100" viewBox="0 0 100 100">
	<style>.a{fill:#53A8E2;}.b{fill:#83C5F4;}</style>
	<g fill="none">
		<path d="M92.5 73C95.4 75.9 97 79.8 97 84 97 88.1 95.4 92 92.5 94.9 89.6 97.9 85.7 99.5 81.5 99.5 77.4 99.5 73.5 97.9 70.6 94.9 67.6 92 66 88.1 66 84 66 79.8 67.6 75.9 70.6 73 73.5 70.1 77.4 68.4 81.5 68.4 85.7 68.4 89.6 70.1 92.5 73ZM91.8 73.7C89 70.9 85.4 69.4 81.5 69.4 77.7 69.4 74 70.9 71.3 73.7 68.5 76.4 67 80.1 67 84 67 87.8 68.5 91.5 71.3 94.2 74 97 77.7 98.5 81.5 98.5 85.4 98.5 89 97 91.8 94.2 94.5 91.5 96 87.8 96 84 96 80.1 94.5 76.4 91.8 73.7Z" class="a"/><path d="M71.2 74.8C73.4 77.1 74.7 80.2 74.8 83.4L67.7 83.4C67.9 80.1 69.2 77.1 71.2 74.8L71.2 74.8Z" class="b"/><path d="M67.7 84.6L74.8 84.6C74.7 87.8 73.4 90.8 71.2 93.2 69.2 90.9 67.9 87.9 67.7 84.6L67.7 84.6Z" class="b"/><path d="M80.9 97.8C77.5 97.6 74.4 96.2 72.1 94 74.5 91.4 75.8 88.1 76 84.6L80.9 84.6 80.9 97.8 80.9 97.8Z" class="b"/><path d="M76 83.4C75.8 79.8 74.5 76.5 72.1 73.9 74.4 71.7 77.5 70.3 80.9 70.2L80.9 83.4 76 83.4 76 83.4Z" class="b"/><path d="M82.1 83.4L82.1 70.2C85.5 70.3 88.6 71.7 91 73.9 88.6 76.5 87.2 79.8 87.1 83.4L82.1 83.4 82.1 83.4 82.1 83.4Z" class="b"/><path d="M82.1 97.8L82.1 84.6 87.1 84.6C87.2 88.1 88.6 91.4 91 94 88.6 96.2 85.5 97.6 82.1 97.8L82.1 97.8Z" class="b"/><path d="M91.8 93.2C89.6 90.8 88.4 87.8 88.3 84.6L91.3 84.6C91.6 84.6 91.9 84.3 91.9 84 91.9 83.6 91.6 83.4 91.3 83.4L88.3 83.4C88.4 80.2 89.6 77.1 91.8 74.8 94 77.2 95.3 80.4 95.3 84 95.3 87.5 94 90.7 91.8 93.2L91.8 93.2Z" class="b"/><path d="M20.5 43.4L2.5 43.4C1.1 43.4 0 42.3 0 40.9L0 2.5C0 1.1 1.1 0 2.5 0L54.7 0C56.1 0 57.2 1.1 57.2 2.5L57.2 40.9C57.2 42.3 56.1 43.4 54.7 43.4L35.7 43.4 35.7 47.6C35.7 49 34.6 50.2 33.2 50.2 32.3 50.2 31.5 49.7 31.1 48.9L30.6 48.9 30.6 95 39 95C40.3 95 41.5 96.1 41.5 97.5 41.5 98.9 40.3 100 39 100L17.2 100C15.9 100 14.8 98.9 14.8 97.5 14.8 96.1 15.9 95 17.2 95L25.6 95 25.6 48.9 25.1 48.9C24.7 49.7 23.9 50.2 23 50.2 21.6 50.2 20.5 49 20.5 47.6L20.5 43.4ZM54.7 1L2.5 1C1.7 1 1 1.7 1 2.5L1 40.9C1 41.7 1.7 42.4 2.5 42.4L21.5 42.4 21.5 47.6C21.5 48.5 22.2 49.1 23 49.1 23.6 49.1 24.1 48.8 24.4 48.2L24.5 47.9 26.6 47.9 26.6 96 17.2 96C16.4 96 15.8 96.7 15.8 97.5 15.8 98.3 16.4 99 17.2 99L39 99C39.8 99 40.5 98.3 40.5 97.5 40.5 96.7 39.8 96 39 96L29.6 96 29.6 47.9 31.7 47.9 31.9 48.2C32.1 48.8 32.6 49.1 33.2 49.1 34.1 49.1 34.7 48.5 34.7 47.6L34.7 42.4 54.7 42.4C55.6 42.4 56.2 41.7 56.2 40.9L56.2 2.5C56.2 1.7 55.6 1 54.7 1Z" class="a"/><polygon points="27 46.2 24.5 46.2 24.5 43 27 43" class="a"/><polygon points="27 40.7 24.5 40.7 24.5 37.5 27 37.5" class="a"/><polygon points="32.1 46.2 29.6 46.2 29.6 43 32.1 43" class="a"/><polygon points="32.1 40.7 29.6 40.7 29.6 37.5 32.1 37.5" class="a"/><path d="M34.4 33.6C34.4 34.1 34.1 34.5 33.8 34.5L23.5 34.5C23.1 34.5 22.8 34.1 22.8 33.6L22.8 32.6C22.8 32 23.1 31.6 23.5 31.6L33.8 31.6C34.1 31.6 34.4 32 34.4 32.6L34.4 33.6 34.4 33.6Z" class="a"/><path d="M33.8 27.6L23.5 27.6C22.1 27.6 20.9 28.2 20.1 29.1L20.1 20.3 37.1 20.3 37.1 29.1C36.3 28.2 35.1 27.6 33.8 27.6L33.8 27.6Z" fill="#B3E2FF"/><path d="M35.7 39L35.7 37.1C36.8 36.6 37.7 35.6 38.1 34.5L39.1 34.5C40.2 34.5 41.1 33.6 41.1 32.5L41.1 18.3C41.1 17.2 40.2 16.3 39.1 16.3L18.1 16.3C17 16.3 16.1 17.2 16.1 18.3L16.1 32.5C16.1 33.6 17 34.5 18.1 34.5L19.1 34.5C19.5 35.6 20.4 36.6 21.5 37.1L21.5 39 5 39 5 5 52.2 5 52.2 39 35.7 39 35.7 39Z" fill="#B5E2FF"/><path d="M36.2 38.5L51.7 38.5 51.7 5.5 5.5 5.5 5.5 38.5 21 38.5 21 37.4C20 36.9 19.2 36 18.8 35L18.1 35C16.7 35 15.6 33.8 15.6 32.5L15.6 18.3C15.6 16.9 16.7 15.8 18.1 15.8L39.1 15.8C40.5 15.8 41.6 16.9 41.6 18.3L41.6 32.5C41.6 33.8 40.5 35 39.1 35L38.5 35C38 36 37.2 36.9 36.2 37.4L36.2 38.5ZM35.2 39L35.2 36.8 35.5 36.6C36.5 36.2 37.3 35.3 37.6 34.3L37.8 34 39.1 34C40 34 40.6 33.3 40.6 32.5L40.6 18.3C40.6 17.5 40 16.8 39.1 16.8L18.1 16.8C17.3 16.8 16.6 17.5 16.6 18.3L16.6 32.5C16.6 33.3 17.3 34 18.1 34L19.5 34 19.6 34.3C19.9 35.3 20.7 36.2 21.7 36.6L22 36.8 22 39.5 4.5 39.5 4.5 4.5 52.7 4.5 52.7 39.5 35.7 39.5 35.7 39 35.2 39Z" class="a"/>
	</g>
</svg>