<svg xmlns="http://www.w3.org/2000/svg" width="100" height="100" viewBox="0 0 100 100">
    <g fill="#F78474">
        <path d="M25 20C32.1 20 40.4 22.3 50 27L50 73C42.2 68.5 33.8 66.2 25 66L25 20Z"/>
        <path d="M51 78C59.6 74 69.6 72 81 72L81 30.1 84 30 84 77C70.7 75.7 59.7 76.7 51 80L50 80C41.3 76.7 30.3 75.7 17 77L17 30 20 30.1 20 72C31.4 72 41.4 74 50 78L51 78Z"/>
        <path d="M21 25L24 25.1 24 68C32.8 68.2 41.5 70.8 50 76 43.4 72.8 33.8 71.1 21 71L21 25Z"/>
        <path d="M76 20L76 66C67.2 66.2 58.8 68.5 51 73L51 27C60.6 22.3 68.9 20 76 20Z"/>
        <path d="M80 25L80 71C67.2 71.1 57.6 72.8 51 76 59.5 70.8 68.2 68.2 77 68L77 25.1 80 25Z"/>
    </g>
    <g fill="#D8D8D8">
        <path d="M49 100L46.7 99.9 46.8 97.9 49 98 49 100ZM51 0L53.4 0.1 53.2 2.1 51 2 51 0ZM44.6 99.7L42.3 99.4 42.7 97.4 44.8 97.7 44.6 99.7ZM55.4 0.3L57.8 0.6 57.4 2.6 55.2 2.3 55.4 0.3ZM40.3 99.1L38.1 98.6 38.6 96.6 40.7 97.1 40.3 99.1ZM59.7 0.9L62 1.5 61.5 3.4 59.3 2.9 59.7 0.9ZM36.1 98L33.9 97.3 34.5 95.4 36.6 96.1 36.1 98ZM63.9 2L66.2 2.7 65.5 4.6 63.4 3.9 63.9 2ZM32 96.6L29.8 95.7 30.6 93.9 32.6 94.8 32 96.6ZM68 3.4L70.3 4.3 69.4 6.1 67.4 5.2 68 3.4ZM28 94.9L25.9 93.8 26.9 92.1 28.8 93.1 28 94.9ZM72 5.1L74.2 6.2 73.2 7.9 71.2 6.9 72 5.1ZM24.1 92.8L22.2 91.5 23.3 89.9 25.1 91.1 24.1 92.8ZM75.9 7.2L77.9 8.5 76.7 10.1 74.9 8.9 75.9 7.2ZM20.5 90.4L18.7 89 19.9 87.4 21.6 88.7 20.5 90.4ZM79.5 9.6L81.4 11.1 80.1 12.6 78.4 11.3 79.5 9.6ZM17.1 87.7L15.4 86.1 16.8 84.6 18.4 86.1 17.1 87.7ZM82.9 12.3L84.7 14 83.3 15.4 81.6 13.9 82.9 12.3ZM13.9 84.6L12.4 82.9 13.9 81.6 15.4 83.2 13.9 84.6ZM86.1 15.4L87.7 17.2 86.2 18.4 84.7 16.8 86.1 15.4ZM11.6 82L10.2 80.2 11.8 79 13.1 80.7 11.6 82ZM88.4 18L89.9 19.9 88.3 21 86.9 19.3 88.4 18ZM9 78.6L7.7 76.6 9.4 75.6 10.6 77.4 9 78.6ZM91 21.4L92.4 23.5 90.7 24.5 89.4 22.6 91 21.4ZM6.6 74.9L5.5 72.8 7.3 71.9 8.3 73.9 6.6 74.9ZM93.4 25.1L94.5 27.3 92.7 28.1 91.7 26.1 93.4 25.1ZM4.6 71L3.7 68.9 5.6 68.1 6.4 70.1 4.6 71ZM95.4 29L96.3 31.2 94.5 31.9 93.6 29.9 95.4 29ZM2.7 66.2L2 63.9 3.9 63.4 4.6 65.5 2.7 66.2ZM97.3 33.8L98 36.2 96.1 36.6 95.5 34.5 97.3 33.8ZM1.4 62L1 59.7 2.9 59.3 3.4 61.5 1.4 62ZM98.6 38L99.1 40.4 97.1 40.7 96.6 38.5 98.6 38ZM0.6 57.7L0.3 55.4 2.3 55.2 2.6 57.4 0.6 57.7ZM99.4 42.3L99.7 44.7 97.7 44.9 97.4 42.7 99.4 42.3ZM49 0L49 2 46.8 2.1 46.7 0.1 49 0ZM51 100L51 98 53.2 97.9 53.4 99.9 51 100ZM44.6 0.3L44.8 2.3 42.7 2.6 42.3 0.6 44.6 0.3ZM55.4 99.7L55.2 97.7 57.4 97.4 57.8 99.4 55.4 99.7ZM40.3 0.9L40.7 2.9 38.6 3.4 38.1 1.4 40.3 0.9ZM59.7 99.1L59.3 97.1 61.5 96.6 62 98.5 59.7 99.1ZM36.1 2L36.6 3.9 34.5 4.6 33.9 2.7 36.1 2ZM63.9 98L63.4 96.1 65.5 95.4 66.2 97.3 63.9 98ZM32 3.4L32.6 5.2 30.6 6.1 29.8 4.3 32 3.4ZM68 96.6L67.4 94.8 69.4 93.9 70.3 95.7 68 96.6ZM28 5.1L28.8 6.9 26.9 7.9 25.9 6.2 28 5.1ZM72 94.9L71.2 93.1 73.2 92.1 74.2 93.8 72 94.9ZM24.1 7.2L25.1 8.9 23.3 10.1 22.2 8.5 24.1 7.2ZM75.9 92.8L74.9 91.1 76.7 89.9 77.9 91.5 75.9 92.8ZM20.5 9.6L21.6 11.3 19.9 12.6 18.7 11 20.5 9.6ZM79.5 90.4L78.4 88.7 80.1 87.4 81.4 88.9 79.5 90.4ZM17.1 12.3L18.4 13.9 16.8 15.4 15.4 13.9 17.1 12.3ZM82.9 87.7L81.6 86.1 83.3 84.6 84.7 86 82.9 87.7ZM14.2 15.1L15.6 16.5 14.1 18.1 12.6 16.8 14.2 15.1ZM86.1 84.6L84.7 83.2 86.2 81.6 87.7 82.8 86.1 84.6ZM11.6 18L13.1 19.3 11.8 21 10.2 19.8 11.6 18ZM88.4 82L86.9 80.7 88.3 79 89.9 80.1 88.4 82ZM9 21.4L10.6 22.6 9.4 24.4 7.7 23.4 9 21.4ZM91 78.6L89.4 77.4 90.7 75.5 92.4 76.5 91 78.6ZM6.6 25.1L8.3 26.1 7.3 28.1 5.5 27.2 6.6 25.1ZM93.4 74.9L91.7 73.9 92.7 71.9 94.5 72.7 93.4 74.9ZM4.6 29L6.4 29.9 5.6 31.9 3.7 31.1 4.6 29ZM95.5 70.7L93.7 69.8 94.6 67.8 96.5 68.4 95.5 70.7ZM2.7 33.8L4.6 34.5 3.9 36.6 2 36.1 2.7 33.8ZM97.3 66.2L95.5 65.5 96.1 63.4 98 63.8 97.3 66.2ZM1.4 38L3.4 38.5 2.9 40.7 1 40.3 1.4 38ZM98.6 62L96.6 61.5 97.1 59.3 99.1 59.6 98.6 62ZM0.6 42.3L2.6 42.6 2.3 44.8 0.3 44.6 0.6 42.3ZM99.4 57.7L97.4 57.3 97.7 55.1 99.7 55.3 99.4 57.7ZM0.1 46.6L2.1 46.8 2 49 0 49 0.1 46.6ZM99.9 53.4L97.9 53.2 98 51 100 50.9 99.9 53.4ZM0 51L2 51 2.1 53.2 0.1 53.3 0 51ZM100 49L98 49 97.9 46.8 99.9 46.6 100 49Z"/>
    </g>
</svg>