<svg xmlns="http://www.w3.org/2000/svg" width="255" height="179" fill="none"><style>.a{fill:#f2f2f2}.b{fill:#3f3d56}.c{fill:#000;opacity:.1}.d{fill:#2f2e41}.e{fill:#6c63ff}.f{fill:#ffb9b9}.g{fill:#d0cde1}</style><g clip-path="url(#clip0)"><path d="M252 105c0 25-15 34-33 34s-33-9-33-34 33-57 33-57 33 32 33 57z" class="a"/><path d="M218 135v-21l14-26-14 23v-10l10-18-10 16 1-17 10-15-10 12V48l-1 41v-1l-11-16 11 19-1 19v-1l-13-17 13 19v2l-1 1-2 48h3l1-25 12-19-12 17z" class="b"/><path d="M183 82c0 33-19 44-43 44-23 0-43-11-43-44 0-32 43-73 43-73s43 41 43 73z" class="a"/><path d="M139 121V94l18-33-18 29V78l13-25-12 21V53l13-20-13 16V9l-1 53v-2l-14-21 14 25-2 25v-1l-15-22 15 24v4l-3 61h4l1-32 15-24-15 22z" class="b"/><path d="M249 166c0 3-7 5-19 7-22 3-61 6-105 6-69 0-125-6-125-13 0-1 1-2 3-3s6-2 10-2c10-2 24-4 41-5 20-1 43-2 69-2h15c15 0 30 0 43 1h2c3 0 5 1 8 1h2c8 0 15 1 21 2h3c8 1 15 2 20 3 8 1 12 3 12 5z" class="b"/><path d="M181 172c15 0 27-3 27-7 0-3-12-6-27-6s-27 3-27 6c0 4 12 7 27 7zM249 166c0 3-7 5-19 7-9-1-15-3-15-6s9-6 22-6c8 1 12 3 12 5zM135 163c0 4-29 8-66 8-36 0-65-3-66-8 7-3 26-5 51-7h15c37 0 66 3 66 7z" class="c"/><path d="M123 0H13v164h110V0z" class="b"/><path d="M123 57H20v50h103V57z" class="d"/><path d="M164 58H62v48h102V58z" class="b"/><path d="M91 65H68v8h23v-8zM157 80H74v2h83v-2zM157 85H74v3h83v-3zM157 91H74v2h83v-2zM157 97H74v2h83v-2z" class="e"/><path d="M44 19H21v8h23v-8zM110 33H26v2h84v-2zM110 39H26v2h84v-2zM110 44H26v3h84v-3zM110 50H26v2h84v-2zM44 112H22v9h22v-9zM111 127H27v2h84v-2zM111 133H27v2h84v-2zM111 138H27v3h84v-3zM111 144H27v2h84v-2z" class="a"/><path d="M174 34s4 6 4 10c-1 4 9-6 9-6s-3-7-1-10c1-4-12 6-12 6z" class="f"/><path d="M190 152s6 6 5 8c-1 1-19 6-21 6s-3-2-2-2 5-3 5-3l4-4s3-2 3-3 6-2 6-2z" class="d"/><path d="M180 159l-3 4c-1 0 2 5 2 5l6-2 3-3v-3l-8-1z" class="f"/><path d="M173 88l-2 13s-10 22-3 26l15 28 8-3-14-29 6-34-10-1z" class="g"/><path d="M173 88l-2 13s-10 22-3 26l15 28 8-3-14-29 6-34-10-1z" class="c"/><path d="M174 90h-1c0 5 0 9 1 13l3 24s0 3 1 4 1 0 1 2c0 3 2 18 2 18s0 4-1 4c-1 1-3 5-1 6 1 0 11 1 12 0v-27l-1-5c0-1-2-5-1-5v-4c0-1-1 0 0-2s1-17 1-17 6-9 4-11h-20z" class="g"/><path d="M178 36c5 0 9-4 9-9 0-6-4-10-9-10s-10 4-10 10c0 5 5 9 10 9z" class="f"/><path d="M187 36s-6 2-8 5l-2 1v2s-4 11-3 17c1 5 0 15-1 17-1 3-2 4-1 5s1 5 1 6c-1 2 0 4 6 4 7 1 16 1 16-2V81c1-2 1-3 1-4-1-2 0-19 0-19s0-18-9-22z" class="d"/><path d="M174 80l-8 12s-8 7-5 11c3 3 11-10 11-10l8-10-6-3z" class="f"/><path d="M179 163s-1-1-2-1-7 4-7 4-9 1-6 3c4 2 25 2 25 1 0 0 0-7-1-7s-9 1-9 1v-1zM178 22h-1-1v-1-1l-1-1h-1v1s-1 1-1 0h-2v2h-1c-1 0-1-1 0-2-1 0-2 0-2-1l1-1v-2s1 0 1-1v-1c0-1 1-1 2-1h3s0-1 1-1c0 0 0-1 1-1s1 1 2 1h1c0 1 1 0 2 0h1v1h1v1h1c1 0 1 1 1 1v1c-1 0 0 0 0 0h1c1 1 0 2 1 3h1c0 1 1 1 1 2v1l-1 1 1 1c1 0 1 1 1 1v2s-1 1-1 2v1s0 1-1 1v1h-2l-1 1s1 1 0 1c0 1-1 0-2 0v-5-2h-3c-1-1-1-2-1-3v-2c0-2-1-2-2-2 1 0 1 1 0 2z" class="d"/><path d="M186 43s-5 3-5 7c0 5 0 12-1 14s-2 3-1 4c0 2 1 2 0 3-2 1-2-1-2 1s1 3 0 4-5 5-4 6c2 1 6 5 8 4 1-2 2-6 4-6 2 1 2 1 2-1-1-1-2-1 0-1 2-1 2 0 2-1-1-2-1-2 0-4 1-1 2-2 1-3 0-2 4-16 4-16s1-12-8-11z" class="c"/><path d="M185 43s-6 2-6 7 0 11-1 13c-1 3-2 3-1 5s2 1 0 3c-2 1-1-1-2 1 0 2 2 2 0 3-1 1-5 5-3 7 1 1 6 5 7 3 1-1 2-5 4-5s2 1 2-1c0-1-1-1 0-2 2 0 3 1 2-1 0-1-1-1 0-3s2-2 2-4c0-1 3-15 3-15s1-12-7-11z" class="c"/><path d="M185 43s-5 2-5 7c0 4 0 11-1 13s-2 3-1 5c0 1 1 1 0 2-2 2-2-1-2 2 0 2 2 2 0 3-1 1-5 5-3 6 1 1 5 6 7 4 1-2 2-6 4-5 2 0 2 0 2-1 0-2-2-2 0-2 2-1 2 0 2-1-1-1-1-2 0-3 1-2 2-2 2-4-1-2 3-16 3-16s1-12-8-10zM215 141c0 12 8 22 18 22l-18-22z" class="d"/><path d="M233 163c0-12 8-23 19-23l-19 23zM221 142c0 12 5 21 12 21l-12-21z" class="e"/><path d="M233 163c0-16 10-29 22-29l-22 29z" class="d"/><path d="M229 163h3c1-1 4-1 4-1 0 1 4 5 1 5s-6-1-7-1c-1-1-1-3-1-3z" fill="#A8A8A8"/><path d="M237 166c-3 0-6 0-7-1-1 0-1-1-1-2 0 0 0 2 1 3 1 0 4 1 7 1 1 0 1-1 1-1h-1z" fill="#000" opacity=".2"/></g></svg>