<svg xmlns="http://www.w3.org/2000/svg" width="100" height="100">
	<style>
	.a{fill:#434a53}

	.r-spin {
		animation: anim-spin 5s linear infinite;
		transform-origin: 42% 42%;
	}

	@keyframes anim-spin {
		0% {transform: rotate(0deg);}
		100% {transform: rotate(360deg);}
	}
	</style>
	<path d="M71.7 60.4l1.1-3.4h7.4l1.1 3.4c1.1.3 2.2.8 3.2 1.5l3.1-1.9 5.4 5.5-1.8 3c.6 1 1.1 2.1 1.4 3.2l3.4 1.1v7.4l-3.4 1.2c-.3 1-.8 2.1-1.4 3.1l1.8 3.1-5.4 5.4-3.1-1.8c-1 .6-2.1 1.1-3.2 1.4L80.2 96h-7.4l-1.1-3.4c-1.1-.3-2.2-.8-3.2-1.4l-3 1.8-5.5-5.4 1.8-3.1c-.6-1-1.1-2.1-1.4-3.1L57 80.2v-7.4l3.4-1.1c.3-1.1.8-2.2 1.4-3.2l-1.8-3 5.5-5.5 3 1.9c1-.7 2.1-1.2 3.2-1.5zM77.5 83c3 0 5.5-2.4 5.5-5.5 0-3-2.5-5.5-5.5-5.5S72 74.5 72 77.5c0 3.1 2.5 5.5 5.5 5.5z" fill="#E4E7E7"/>
	<g class="r-spin">
		<path d="M33.1 10.6l2-6.6h14.8l2 6.6c2.3.7 4.4 1.7 6.5 2.8l6-3.3 10.5 10.5-3.3 6c1.2 2.1 2.1 4.4 2.8 6.5l6.6 2v14.8l-6.6 2c-.7 2.3-1.6 4.5-2.8 6.5l3.3 6-10.5 10.5-6-3.2c-2.1 1.1-4.2 2-6.5 2.7l-2 6.6H35.1l-2-6.6c-2.3-.7-4.4-1.6-6.5-2.7l-6 3.2-10.5-10.5 3.2-6c-1.1-2-2-4.2-2.7-6.5l-6.6-2V35.1l6.6-2c.7-2.1 1.6-4.4 2.7-6.5l-3.2-6 10.5-10.5 6 3.3c2.1-1.1 4.2-2.1 6.5-2.8z" fill="#F6F7F7"/>
		<path d="M49.9 83H35.1c-.9 0-1.7-.6-1.9-1.3L31.5 76c-1.6-.6-3.3-1.3-4.9-2.1l-5.3 2.8c-.7.4-1.6.3-2.1-.3L8.6 65.8c-.6-.5-.7-1.4-.3-2.1l2.8-5.3c-.8-1.5-1.5-3.2-2.1-5l-5.6-1.6c-.8-.2-1.4-1-1.4-1.9V35.1c0-.9.6-1.7 1.4-1.9L9 31.5c.6-1.6 1.3-3.3 2.1-4.9l-2.8-5.3c-.4-.7-.3-1.6.3-2.1L19.2 8.6c.5-.6 1.4-.7 2.2-.3l5.2 2.9c1.4-.7 3.2-1.5 4.9-2.2l1.7-5.6c.2-.8 1-1.4 1.9-1.4h14.8c.9 0 1.7.6 1.9 1.4L53.5 9c1.7.7 3.5 1.5 4.9 2.2l5.2-2.9c.8-.4 1.7-.3 2.2.3l10.6 10.6c.6.5.7 1.4.3 2.2l-2.9 5.2c.8 1.5 1.5 3.2 2.2 4.9l5.7 1.7c.7.2 1.3 1 1.3 1.9v14.8c0 .9-.6 1.7-1.3 1.9L76 53.4c-.6 1.9-1.4 3.6-2.2 5l2.9 5.2c.4.8.3 1.7-.3 2.2L65.8 76.4c-.5.6-1.4.7-2.1.3l-5.3-2.8c-1.6.8-3.3 1.5-4.9 2.1l-1.7 5.7c-.2.7-1 1.3-1.9 1.3zm-13.5-3.8h12.2l1.5-5.3c.2-.6.7-1.1 1.4-1.2 2-.7 3.9-1.5 6-2.5.6-.3 1.2-.3 1.8 0l4.9 2.6 8.6-8.6-2.7-4.9c-.4-.6-.3-1.3 0-1.9 1-1.7 1.9-3.6 2.6-5.9.1-.7.6-1.2 1.2-1.4l5.3-1.5V36.4l-5.3-1.5c-.6-.2-1-.7-1.2-1.3-.7-2.3-1.6-4.3-2.6-6-.3-.6-.3-1.3 0-1.9l2.7-4.9-8.6-8.6-4.9 2.7c-.5.3-1.2.3-1.8 0-1.7-.8-3.8-1.9-6-2.6-.7-.1-1.2-.6-1.4-1.2l-1.5-5.3H36.4l-1.5 5.3c-.2.6-.7 1.1-1.4 1.2-2.2.7-4.3 1.8-6 2.6-.6.3-1.3.3-1.8 0l-4.9-2.7-8.6 8.6 2.6 4.9c.3.5.3 1.2 0 1.8-.9 1.9-1.8 3.9-2.5 6.1-.2.6-.6 1.1-1.2 1.3l-5.3 1.5v12.2l5.3 1.5c.6.2 1.1.7 1.2 1.4.7 2.2 1.6 4.2 2.5 6 .3.5.3 1.2 0 1.8l-2.6 4.9 8.6 8.6 4.9-2.6c.5-.3 1.2-.3 1.8 0 2.1 1 4 1.8 6 2.5.7.1 1.2.6 1.4 1.2l1.5 5.3z" fill="#434A53"/>
	</g>
	<path d="M60 34.8L53.3 28 37.8 43.5l-6.1-6.2L25 44c5.3 5.4 7.6 7.7 12.8 13L60 34.8z" fill="#41CEB3"/>
	<path d="M80.7 98h-7.4c-.8 0-1.5-.6-1.7-1.3l-.7-2.4c-.7-.2-1.2-.5-1.8-.7L67 94.8c-.8.3-1.6.2-2.2-.3l-5.3-5.3c-.5-.6-.6-1.4-.3-2.2l1.2-2.1c-.2-.5-.5-1.1-.7-1.8l-2.4-.7c-.7-.1-1.3-.9-1.3-1.7v-1.5c0-1.1.9-1.9 1.8-1.9 1.1 0 1.9.8 1.9 1.9v.1l2 .6c.6.2 1.1.6 1.3 1.3.3 1.1.6 2 1.1 2.8.3.5.3 1.2 0 1.8l-.9 1.8 3.2 3.2 1.8-.9c.6-.3 1.3-.3 1.8 0 .8.5 1.8.8 2.8 1.1.7.2 1.1.7 1.3 1.3l.6 2h4.6l.6-2c.2-.6.6-1.1 1.3-1.3 1.1-.3 1.9-.6 2.9-1.1.5-.3 1.1-.3 1.7 0l1.8.9 3.2-3.2-.9-1.8c-.3-.6-.3-1.3 0-1.8.5-.8.8-1.7 1.1-2.8.2-.7.7-1.1 1.3-1.3l2-.6v-4.6l-2-.6c-.6-.2-1.1-.6-1.3-1.3-.3-1-.6-2-1.1-2.8-.3-.5-.3-1.2 0-1.8l.9-1.8-3.2-3.2-1.8.9c-.6.3-1.2.3-1.7 0-1-.5-1.8-.8-2.9-1.1-.7-.2-1.1-.7-1.3-1.3l-.7-2c-1.1 0-1.9-.8-1.9-1.9 0-.9.8-1.8 1.9-1.8h1.5c.8 0 1.6.6 1.7 1.3l.7 2.4c.7.2 1.3.5 1.7.7l2.2-1.2c.8-.3 1.6-.2 2.2.3l5.3 5.3c.5.6.6 1.4.3 2.2l-1.2 2.1c.2.6.5 1.1.7 1.8l2.4.7c.7.2 1.3.9 1.3 1.7v7.4c0 .8-.6 1.6-1.3 1.7l-2.4.7c-.2.7-.5 1.3-.7 1.8l1.2 2.1c.3.8.2 1.6-.3 2.2l-5.3 5.3c-.6.5-1.4.6-2.2.3l-2.2-1.2c-.4.2-1 .5-1.7.7l-.7 2.4c-.1.7-.9 1.3-1.7 1.3z" class="a"/>
	<path d="M77 84c-3.9 0-7-3.1-7-7 0-1 .8-1.8 1.8-1.8s1.9.8 1.9 1.8c0 1.9 1.4 3.3 3.3 3.3 1.8 0 3.3-1.5 3.3-3.3 0-1.8-1.5-3.3-3.3-3.3-1 0-1.8-.9-1.8-1.9 0-1 .8-1.8 1.8-1.8 3.8 0 7 3.2 7 7 0 3.9-3.1 7-7 7zM37.8 59c-.5 0-1-.2-1.2-.6l-13-13c-.8-.8-.8-1.9 0-2.7l6.7-6.8c.8-.7 2-.7 2.6 0l4.9 5 14.3-14.3c.6-.8 1.9-.8 2.6 0l6.7 6.8c.4.3.6.8.6 1.3s-.2 1-.6 1.3l-4.2 4.3c-.7.7-1.9.7-2.6 0-.8-.8-.8-2 0-2.7l2.8-2.9-4.1-4.1-14.1 14.2c-.8.8-2 .8-2.6 0L31.7 40l-4.1 4.1 10.2 10.3 12.8-12.8c.7-.7 1.9-.7 2.6 0 .8.7.8 2 0 2.6l-14 14.2c-.4.4-.9.6-1.4.6z" class="a"/>
</svg>