<svg xmlns="http://www.w3.org/2000/svg" width="253" height="187" fill="none"><style>.a{fill:#6c63ff;opacity:.1}.b{fill:#f6bac2}.c{fill:#b77983}.d{fill:#000;opacity:.05}.e{fill:#d39999}.f{fill:#4b4442}.g{fill:#8499f0}.h{fill:#fff;opacity:.1}.i{opacity:.05}.j{fill:#b7b6cc}.k{opacity:.5}.l{fill:#f9fafb}.m{fill:#fff}.n,.o,.p{fill:#6c63ff}.o,.p{opacity:.5}.p{opacity:.3}.q{fill:#000;opacity:.1}.r{fill:#a8a8a8}.s{fill:#000;opacity:.2}.t{fill:#f6f7f9}.u,.v{opacity:.2}.v{fill:#6c63ff}.w{fill:#ae6e79}.x{fill:#bebed0}.y{fill:#42383c}.z{stroke:#565987}.A{fill:#ffd037}.B{stop-opacity:.3}.C{stop-opacity:.1}</style><g clip-path="url(#clip0)"><path d="M107 13c-8-4-17-7-26-6-13 0-25 8-32 20-5 10-5 21-8 32-2 13-8 26-14 39-3 6-6 13-6 21-1 10 4 20 12 27 7 7 17 10 28 11 5 0 11 0 16-3 5-2 8-7 14-10 4-2 10-2 15-2 7 0 14 2 21 4 7 3 14 7 22 10 7 3 15 4 23 2 7-2 13-8 18-13 8-9 16-19 23-29 4-7 9-14 11-22 3-15-2-33-14-43-10-9-23-13-36-15-11-2-25-2-36-7-10-6-20-12-31-16z" class="a"/><path d="M195 27c-4 0-4 8-4 9 1 0 0 4 0 4s-2 5-2 6c1 1 0 2 0 2-2 1-4 2-4 3l-2 1c0 1-1 0-1 0h-2l-1-2v-1c1 0 2-1 2-2h2l1-1v-1-1s-1 0-1-1c0 0 0-1 1-1v-2l-1-1c-1-1-2 0-3-1h-1c-1 0-1-1-2-1 0 0-1 0-1 1h-1v1h-1c-1-1 0-2 1-2 1-1 5-3 5-4 1-1 4-3 4-3s4-1 6-6c1-4-7 3-8 4-1 0-2 1-2 1l-6 3c-1 0-2 1-3 2s-2 3-2 3 0 1-1 2l-2 2s-2 2-2 3-1 5-1 5 0 4-1 4c0 0 0 2-1 2 0 1-1 3 0 4l-1 2-2 4s-1 2-1 3c1 0 1 1 1 1v1c-1 0-1 0-1 1 0 0-1 1-1 2v6c-1 1-1 9-1 9s0 5 1 8v8l1 4s-1 6-1 8c1 0 1 1 1 2 0 0 1 0 1 1v6h1v1h2s3 0 3-1v-1-1-1l-1-1v-3-1-1c1-2 0-3 0-5v-9-3l1-7 1-5 1 1c0 1 1 4 1 4l1 7s1 2 1 3v1s1 1 1 2v9c1 2 0 4 0 4h1l-1 1v2c1 1 0 2 0 2v3c0 1 2 1 2 1h2v-1h1v-1h1v-1-5s0-2 1-3c0-1-1-3-1-3v-11-2c0-1 0-2-1-2v-2c1 0 0-8 0-8V78h-1v-4-1-1h-1c0-1 0-1 1-2l3-2 2-4s1-2 3-3c1 0 5-3 5-3l2-2 3-6c2-1 2-3 2-3V35s4-8 1-8zm-22 15c-1 1-1 2-1 3s0 1 1 2c0 0-1 0-1 1v-2l-1-1v-1s1-1 1-2h1z" fill="url(#paint0_linear)"/><path d="M184 42v-1c0 1 0 1-1 1h1z" fill="url(#paint1_linear)"/><path d="M174 47s-1 3-2 4c-1 0 1 4 1 4h6v-2s-1-2 1-5-6-1-6-1z" class="b"/><path d="M165 125c-1 1-3 1-3 1-4 1-3-3-3-3v-5l4-2v1c1 1 1 2 1 2v4c1 1 1 2 1 2zM172 127s-2 0-2-1v-3s1-1 1-2c-1 0-1-2-1-2s1 0 1-1v-1c0-1 5 1 5 1v5s0 4-4 4z" class="c"/><path d="M189 25c-1 4-6 6-6 6s-3 2-3 3c0 0-4 3-5 3-1 1-1 1-1 2s-2 5-3 5v1h-1l-2 2-2-1-1-3 2-2 1-1 1-2s1-2 2-3 2-2 3-2l6-4s1 0 2-1c0 0 9-8 7-3z" class="b"/><path d="M168 45l3-1v1h-1l-2 2-2-1-1-3 2-2c-2 3-1 4-1 4h2zM188 57l-1 1h-3l-1-3 1-3h1v-1 5l1 1h2z" class="d"/><path d="M188 57l-1 2-6 3c-1 0-2 3-2 3l-2 3s-3 2-3 3c-1 0-1 1-1 1l1 1h-1l-1 1-1 1h-2l-5-1h-1l-5-3v-1-2c0-1 1-3 1-3l1-3c0-1 1-3 1-3l1-3 1-2c0-1 1-4 1-4s0-4 1-5c0-1 1-4 2-4-2 3-1 4-1 4h5v1s1 0 1 1v1h1v-1l1 1v2c-1 0 0 1 0 1v2h2c0-1 1-1 1-2h1v-1h1v2h1v1h3c0-1 2-1 2-1v5h3z" class="e"/><path d="M173 55h1c0-1 0-1-1-1v1zM171 60v-1 1zM166 70c1 0 1-1 1-1h-1v1zM169 64h-1 1z" class="f"/><path d="M163 117c-1 2-3 2-4 2v-1l4-2v1zM176 119c-3 2-5 0-5 0v-2c0-1 5 1 5 1v1z" class="d"/><path d="M177 116c-1 1-1 3-1 3-3 2-5-1-5-1s0-2-1-4v-3-4-2l-1-2v-1-3l-2-6s-1-4-1-5-1-1-1-1l-1 5-1 8v11c1 2 1 4 1 5-3 4-6 2-6 2 0-1-1-2-1-2v-12-3c-1 0-1-2-1-2l1-3c-1-3-1-8-1-8v-8-2c0-1 0-1 1-1v-4s0-1 1-2v-1s2 1 8 3c1 1 2 1 3 1h4c0-1 0-1 1-1v4s0 1 1 1v10s1 8 0 8v2c1 0 1 1 1 2v13s1 2 1 3z" class="g"/><path d="M173 103s2-2 3-1c0 1-3 1-3 1zM174 104h1c1 1-1 0-1 0zM158 99c0 1 2 2 4 1l-4-1zM162 102s-1 2-2 2 2-2 2-2zM171 105s3 5 2 6c0 1-2-6-2-6zM165 75v10s2 0 2-3c1-3 1-6 1-6l-3-1z" class="d"/><path d="M165 75v10s2 0 2-3c1-4 1-6 1-6l-3-1z" class="g"/><path d="M161 76s-1 4-4 2v-1c1 0 3 1 4-2v1z" class="d"/><path d="M161 75s-1 4-5 2h1c1 0 3 1 4-2z" class="d"/><path d="M161 75s-1 4-5 3c0-1 0-1 1-1s3 1 4-2z" class="g"/><path d="M175 79c-4 2-6-2-6-2h1c0 2 3 2 4 1 0 1 0 1 1 1z" class="d"/><path d="M175 79c-4 2-5-3-5-3 1 3 4 2 5 2v1z" class="d"/><path d="M175 79c-4 2-6-3-6-3h1c1 3 4 2 5 2v1z" class="g"/><path d="M161 75s-1 4-5 3c0-1 0-1 1-1s3 1 4-2zM175 79c-4 2-6-3-6-3h1c1 3 4 2 5 2v1z" class="h"/><path d="M165 125c-1 1-3 1-3 1-2 0-3-1-3-2v-2c1 0 1 1 1 1 1 1 2 0 2 0h2s1 0 1 1v1z" class="d"/><path d="M161 125s-1 0-2-1v-1c0 1 1 2 2 2zM165 125h-1c0-1 0-1 1-1v1zM170 125v1c0 1 2 1 2 1 3 0 3-1 4-2v-2h-1-1c-1 1-2 0-2 0s-1 0-1 1c-1 0-1 0-1-1v2z" class="d"/><path d="M174 125s0 1 2 0v-1c-1 0-2 1-2 1zM170 125h1c-1 0-1 0-1-1v1zM167 57s-4 9-2 10c1 1 2-10 2-10zM169 54v0zM176 61l-4 4c1 1 4-4 4-4zM180 52c-2 1-6 2-6 2v-1h2c0-1 1-1 1-2h1v-1c1 0 1 1 1 1v1h1z" class="d"/><path d="M180 52c-2 1-6 2-6 2v-1h2c0-1 1-1 1-2h1v-1h1v2h1z" class="e"/><path d="M174 51v3l-2-4v-2h1v-1l1 1v2c-1 0 0 1 0 1z" class="d"/><path d="M174 51v3l-1-4-1-2h1v-1l1 1v2c-1 0 0 1 0 1z" class="e"/><path d="M182 45c0 1 0 2-1 3 0 1-1 2-2 2h-3c-1 0-2 0-2-1-1-1-1-2-2-3 0-1 0-2 1-2 0-1 1-2 1-3h5c1 0 1 1 2 1 0 0 0 1 1 2v1z" class="d"/><path d="M182 45c0 1 0 2-1 3 0 1-1 1-2 2h-3c-1 0-2-1-2-1-1-1-1-2-2-3 0-1 0-2 1-3 0-1 1-1 1-2 1 0 2-1 3-1s1 1 2 1 1 0 2 1c0 0 0 1 1 1v2z" class="b"/><path d="M182 45c0 1 0 2-1 3v-1h-1v1h-1v-1-2c-1 0-1 0-1-1h-1v-1h-3-1c0-1 1-2 2-2 1-1 2-1 3 0 1 0 2 0 3 1s1 2 1 3z" class="d"/><path d="M177 43v1h1l1 1v3h1v-1h1v1h2c0-1 0-1 1-2v-1h-1v-1-2c1 0 1-1 0-1v-1c-1-1-2-1-3-1h-1c-1-1-1-1-2-1h-1c0 1-1 1-1 1l-1 1h-1v1s0 1-1 1c0 1 1 1 1 1h1c1 0 2 0 2-1l1 1z" fill="#7E646B"/><g class="i"><path d="M183 47h-1-1v-1 1h-2v-1-2h-1l-1-1v-1h-1-3-1c0 1 1 1 1 1h1c1 0 2 0 2-1l1 1v1h1l1 1v3h1v-1h1v1h2c0-1 0-1 1-2-1 0-1 1-1 1zM183 43v-1 1zM173 41v-1 1z" class="d"/></g><path d="M174 74h-4-7c-2-1-4-1-5-3v-1c3 1 10 4 15 3h1v1z" class="d"/><path d="M174 74h-4-7c-2-1-4-2-5-3v-1c3 1 10 4 15 2l1 1v1z" class="f"/><path d="M62 172v-1c-1-1-1-1 0-2l9-80 1-7c0-1 1-1 1-2 1 0 1-1 2-1h30c1 0 1 0 1-1 1 0 1 0 1-1v-1-1l1-1c0-1 1-1 1-1h32s1 0 2 1c0 0 1 1 1 2v3h1c1 0 1 1 2 1h29s1 0 1 1h1c0 1 1 1 1 2v1l-15 85v1c0 1 0 1-1 2H62z" class="j"/><path d="M150 55l-33 48 14 10 34-48-15-10z" fill="url(#paint2_linear)" opacity=".5"/><path d="M164 65l-14-9-33 47 14 10 33-48z" class="l"/><path d="M161 65l-10-7-7 10 10 7 7-10z" fill="#F7B643"/><path d="M153 77l-10-7-6 10 9 6 7-9z" fill="#f7b643" opacity=".5"/><path d="M145 89l-10-7-7 10 10 6 7-9z" fill="#f7b643" opacity=".3"/><path d="M130 52l-17 56 18 5 16-56-17-5z" fill="url(#paint3_linear)" opacity=".5"/><path d="M147 57l-17-4-16 55 16 5 17-56z" class="l"/><path d="M144 58l-12-4-3 12 12 3 3-11z" fill="#F97878"/><path d="M140 72l-12-4-3 12 12 3 3-11z" fill="#f97878" opacity=".5"/><path d="M136 85l-12-3-3 12 11 3 4-12z" fill="#f97878" opacity=".3"/><path d="M118 53l-5 58 18 2 5-59-18-1z" fill="url(#paint4_linear)" opacity=".5"/><path d="M136 55l-17-2-5 58 17 1 5-57z" class="l"/><path d="M133 56l-12-1-1 12 12 1 1-12z" fill="#73B53B"/><path d="M132 70l-12-1-1 12 12 1 1-12z" fill="#73b53b" opacity=".5"/><path d="M131 85l-12-1-1 12 12 1 1-12z" fill="#73b53b" opacity=".3"/><path d="M128 55h-18l3 59 18-1-3-58z" fill="url(#paint5_linear)" opacity=".5"/><path d="M128 55l-17 1 3 57h17l-3-58z" class="m"/><path d="M126 56l-12 1v12l12-1V56z" class="n"/><path d="M127 70l-12 1v12l12-1V70z" class="o"/><path d="M127 85l-12 1v12l13-1-1-12z" class="p"/><path d="M118 132l-15 5-22 9c-1-2-2-4-4-6-5-9-14-22-21-34-9-14-16-25-16-25l5-1 44-13 29 65z" fill="#E6ECF8"/><path d="M118 132l-15 5c-8 2-17 3-26 3-5-9-14-22-21-34L45 80l44-13 29 65z" class="q"/><path d="M130 128s-24 14-59 11L43 71l13-3 47-8 26 67 1 1z" class="n"/><path d="M129 127c-6 0-12 0-18-1-7-1-14-2-20-5-5-3-10-6-14-9-9-9-15-22-21-44l47-8 26 67z" class="q"/><path d="M146 123s-17 3-35 1c-7-1-14-2-20-5-5-3-9-6-13-9-12-11-18-28-25-61 0 0 29 7 58-9-1 0 9 60 35 83z" class="l"/><path d="M111 124c-7-1-14-2-20-5-5-3-9-6-13-9 10-1 12-7 12-7 8 12 21 21 21 21z" class="q"/><path d="M68 61s24-1 30-6l1 3s-15 7-31 7v-4zM68 77s23-1 40-10l1 2s-14 8-41 10v-2zM70 83s23-1 40-10v2s-13 8-40 10v-2zM72 89s22-1 40-9v1s-13 8-40 10v-2zM74 95s22-1 39-9l1 1s-14 8-40 10v-2zM75 101s23-1 40-9l1 1s-14 8-41 10v-2z" class="p"/><path d="M235 178s-9-1-8 6c0 0 0 1 1 1h3s3-2 4-6v-1l-1 1v2s0-2-1-2c0 0 1 2 0 4 0 0 0-3-1-4l-1 1s1 2 1 4c0 0 0-3-1-4l-1 1s1 2 0 3v-3l-1 1v2s0-2-1-2v0l-1 1s0-1 1-1l1-1h-2s1-1 3 0l1-1h-3s1-1 3 0l1-1h-3s1-1 3 0l1-1h-2 4z" class="n"/><path d="M229 187c3 0 6-1 6-1 0-1-3-1-6-1-4 0-7 0-7 1 0 0 3 1 7 1zM182 184c12 0 23-1 23-2s-11-2-23-2c-13 0-23 1-23 2s10 2 23 2z" class="a"/><path d="M239 156s-5-1-4 3v1h2s2-1 2-3l1-1h-1v0l-1 1s1 1 0 2v-2h-1s1 1 1 2c0 0 0-1-1-2v3s0-2-1-2v0s-1 1-1 2c0-1 0-1 1-2-1 0-1 1-1 1s0-1 1-1h-1s0-1 1-1h2c-1-1-1-1-2-1h2-1 2s1 0 0 0z" class="n"/><path d="M236 161c2 0 4 0 4-1h-8c0 1 2 1 4 1z" class="a"/><path d="M208 159s-6 0-6 4c0 0 0 1 1 1h2s2-1 3-4v-1l-1 1v0h-1s1 1 1 2c0 0 0-1-1-2l-1 1s1 1 1 2c0 0 0-2-1-2v3s0-3-1-3v1s-1 1-1 2v-2 1s0-1 1-1v-1h-1 2s-1-1-2 0c0 0 1-1 2-1h-1s1-1 2 0h1l-1-1h-1 3z" class="n"/><path d="M204 165h4c0-1-2-1-4-1-3 0-5 0-5 1h5zM12 184c4 0 7-1 7-1 0-1-3-2-7-2-3 0-6 1-6 2 0 0 3 1 6 1z" class="a"/><path d="M8 177s4 0 5-1c1 0 6-1 6 0s6 6 1 6c-4 0-10 0-11-1s-1-4-1-4z" class="r"/><path d="M20 182c-4 0-10-1-11-1-1-1-1-3-1-4 0 0 0 3 1 4s7 1 11 1c1 0 2 0 2-1 0 1-1 1-2 1z" class="s"/><path d="M188 0l-12 36 65 21 12-36-65-21z" fill="url(#paint6_linear)"/><path d="M189 0l-12 36 64 21 11-36-63-21z" class="t"/><g class="u"><path d="M195 27c4 0 7-3 7-7s-3-7-7-7c-3 0-7 3-7 7s4 7 7 7z" class="v"/></g><g class="u"><path d="M213 17l-1 2 29 9 1-2-29-9z" class="v"/></g><g class="u"><path d="M211 22v2l14 4 1-2-15-4z" class="v"/></g><g class="u"><path d="M210 26l-1 2 24 8 1-2-24-8z" class="v"/></g><g class="u"><path d="M208 31v2l29 9v-2l-29-9z" class="v"/></g><g class="k"><path d="M227 45l-1 3 8 3 1-4-8-2z" class="o"/></g><path d="M209 108v-1c-1-1-1-2-2-3l-1-1h-2l-5-2v-1-1c0-1 1-1 1-2s1-2 1-3-1-2-2-3c0 0-1 0-1-1h-2c0-1-2-1-3-2-1 0-2 1-3 1-1 1-2 1-2 2-1 0-2 1-3 1h-1l1 1c1 1 2 1 3 1h1v3c1 1 1 2 2 2h-3l-3-2s-6-3-8 1 7 2 7 2l3 1c-1 0 0 1 0 1l5 3c-1 1-3 1-3 1s-2 1-3 3c0 2-3 11-6 12-3 2-10 12-10 12-1 1-3 2-3 3h-1v1h1v1c3 0 5-1 5-2h1l3-3s-2 2-1 5c-2 4-4 8-5 12 0 0-2 1-2 5 0 5-1 11-1 11s-1 8-1 11c0 1-1 2-2 1-2 0-2 3 0 3s5 1 7 1c0 1 0 1 1 1v-1l1-1c-1-1-1-2-1-3v-1s0-5 1-6c0 0 2-11 2-13 0-3 6-11 8-14 1-1 1-2 1-2l3 13s0 3 2 4c0 0 5 10 5 13l2 4c-1 1-1 1-2 1-2 0-2 3 0 3s5 1 7 1h2v-1c0-1-1-3-1-4 0 0-3-8-3-10 0 0-1-7-6-10 0 0 1-10 2-15 1 0 2-1 4-1v-3 2l7-4v-2-2c-1 0-1-1-1-1v-1-2-1-1h-1v-1-2-1-1l1-1v-1l1-1v-1c1-3 2-5 3-7v-1z" fill="url(#paint7_linear)"/><path d="M189 101l-4-3s-6-2-8 1c-2 4 8 2 8 2l3 2 1-2z" class="w"/><path d="M167 91l-21 32 49 31 21-31-49-32z" class="l"/><path d="M159 111l-5 9 2 2 5-9-2-2zM173 103l-13 19 2 1 13-19-2-1zM177 105l-13 20 2 1 13-20-2-1zM181 108l-12 19 2 2 12-20-2-1zM185 112l-12 19 2 2 12-20-2-1z" class="j"/><path d="M189 113l-12 20 2 1 12-20-2-1zM194 116l-13 19 2 2 12-20-1-1z" class="m"/><path d="M202 119l-4 5 5 3 4-5-5-3z" class="j"/><path d="M201 181c-2 0-5-1-7-1s-2-3 0-3c0 1 1 0 2 0v-1h1c1-1 3-1 4 0s1 3 1 4v1h-1zM171 183c-2-1-5-2-6-2-2 0-2-3-1-2 1 0 2-1 3-2h1c1 0 2-1 3 0 1 0 1 1 1 1 1 1 1 2 1 3v1h-1v1h-1z" class="x"/><path d="M172 178c-3 3-5 0-5-1h1c1 0 2-1 3 0 1 0 1 0 1 1zM201 176c-1 1-5 1-5 1v-1h1c1-1 3-1 4 0z" class="q"/><path d="M201 176c0 1-5 1-5 1s-1-2-2-5c0-3-5-12-5-12-2-2-3-5-3-5l-1-12s-10 12-10 15-2 13-2 13c-1 2-1 7-1 7-3 3-5-1-5-1-1-2 0-10 0-10s1-7 2-11c0-4 1-5 1-5 1-5 3-9 5-12l2-2 18 2v3c-2 5-2 14-2 14 4 3 5 11 5 11 0 2 3 9 3 9z" fill="#5C5C8E"/><g class="i"><path d="M183 144v-1s-9 12-9 15-2 13-2 13c-1 2-1 7-1 7s-1 1-2 1c1 0 2 0 3-1 0 0 0-5 1-7 0 0 2-10 2-13 0-2 6-10 8-14z" class="d"/><path d="M199 167s-2-8-6-11c0 0 0-9 2-14v-3l-18-2 17 2c0 1-1 2-1 3-1 5-1 14-1 14 4 3 5 11 5 11 0 2 3 9 3 9 0 1-2 1-3 1 1 0 4 0 5-1 0 0-3-7-3-9z" class="d"/></g><path d="M173 136v1c-1 0-2 2-5 1h-1v-1c1-2 2-3 4-3h1l1 2z" class="w"/><path d="M198 103l-10-3s-2 1-1 3l9 6 2-6z" class="y"/><path d="M198 103l-10-3s-2 1-1 3l9 6 2-6z" class="q"/><path d="M198 98s0 5 2 7c3 2-7 3-7 3s2-6 0-9c-1-2 5-1 5-1z" class="w"/><path d="M195 139v3c-12 2-19-3-19-3h-1l2-2 18 2zM173 136v1c-1-1-2-3-2-3h1l1 2z" class="q"/><path d="M199 103l-4 1-2 2-4 2c-1 0-2 0-3 2 0 2-3 11-6 12-2 2-9 12-9 12s1 3 2 2l4-2s-3 2-1 5c0 0 9 5 22 2v-4l1 3 6-4s0-7-1-11c-1-2-1-3 0-5 2-3 4-9 4-11 0-3-2-4-2-4h-1l-2-1-4-1z" class="y"/><path d="M192 114s-3 11-5 13c-3 1-9 7-10 8" class="d"/><path d="M191 114s-3 11-5 12c-3 2-10 8-10 8" class="y"/><path d="M193 106s8-2 10-2l-10 2z" class="q"/><g class="i"><path d="M204 120c2-3 4-9 4-11 0-3-2-4-2-4h-1l-1-1c1 0 1 0 1 1 0 0 2 1 2 3 0 3-2 8-4 12-1 1-1 3 0 5 1 3 1 11 1 11l-5 3v1l6-4s0-7-1-11c-1-2-1-3 0-5zM202 104h1l-4-1h-1l4 1z" class="d"/></g><path d="M191 125s3-2 4-1c2 0 6-1 6-1M198 99c-1-1 0-1 0-1s-6-1-5 2c1 1 1 2 1 2 2 0 3-1 4-3z" class="d"/><path d="M194 102c3 0 5-2 5-5s-2-5-5-5-5 2-5 5 2 5 5 5z" class="w"/><path d="M199 99c1-1 1-3 1-4s-1-2-1-2c-1-1-1-1-2-1l-1-1c-1-1-2-1-3-1s-2 0-3 1c-1 0-2 1-3 1 0 1-1 1-2 1-1 1 0 1 0 1 1 1 2 2 3 2h1c1 1 1 2 2 2v1h2c1 0 1 1 2 1 0 1 1 1 2 2 0 0 2 0 2-1v-1-1z" class="q"/><path d="M199 98c1-1 1-2 1-3s0-2-1-3h-2c0-1-1-1-1-1-1-1-2-1-3-1s-2 0-3 1c-1 0-2 1-2 1-1 1-2 1-3 1s0 1 0 1c1 1 2 2 3 2 0 0 1-1 1 0h1c0 1 0 1 1 2v1h2c1 0 1 0 2 1s1 1 2 1c0 1 2 1 2 0v-1-2z" class="y"/><path d="M163 172H62v-1c-1-1-1-1 0-2l9-80h8c0 1 1 1 1 2l1 4s0 1 1 1c0 0 1 1 1 0h25c1 0 1 0 2-1v-4c0-1 0-1 1-2 0 0 1-1 2-1h34s1 0 1 1c1 0 1 0 1 1l15 79v2l-1 1z" class="q"/><path d="M146 89l-35 1h-1c-1 1-1 1-1 2v3s0 1-1 1c0 1-1 1-1 1l-25 1-1-1c-1 0-1-1-1-1l-1-4c0-1-1-1-1-2H43l-1 1c-1 0-1 1-1 1v1l13 78c1 0 1 1 1 1 1 1 1 1 2 1h105l1-1v-1-1l-15-79s0-1-1-1c0-1-1-1-1-1z" fill="#E6E8EE"/><path d="M194 36v5l-1 6s0 3-1 4l-4 6-1 1h-3l-1-3 1-3h1v-1s2-2 3-2c0 0 1-1 1-2s1-7 1-7 1-3 1-4c0 0 0-8 3-8 3-1 0 8 0 8z" class="b"/><path d="M34 157c2 0 3-1 3-1h-7s2 1 4 1zM20 158h4c0-1-2-1-4-1s-4 0-4 1h4zM4 156h3c0-1-1-1-3-1s-4 0-4 1h4zM26 162h2c0-1-1-1-2-1-2 0-3 0-3 1h3zM11 162c2 0 3-1 3-1H9s1 1 2 1z" class="a"/><path d="M20 157s5-16-1-23c-4-5-9-4-12-4 0 1-1 1-1 1-1 1-1 1-1 2-1 1-1 4 5 7 9 6 9 13 9 13l1 4z" class="n"/><path d="M8 133s15 4 12 24M17 134s-2 2-1 4M10 136s1-2 3-1M16 142s2-1 2 0M21 144s-2 0-2 1" class="z"/><path d="M20 158s-6-12-8-12l-1 1c0 1 0 2 1 3 0 2 3 6 8 8z" class="n"/><path d="M13 148s6 9 7 10M12 150h1M14 153h2M15 150v1M18 154l-1 1" class="z"/><path d="M20 158s6-12 7-12 2 1 2 1c0 1 0 2-1 3 0 2-3 6-8 8z" class="n"/><path d="M27 148s-6 9-7 10M28 150h-1M26 153h-2M25 150v1M22 154v1" class="z"/><path d="M10 160H9s0-1 1-1v1h1v-1c1 0 1 1 1 1v-1h1v1s-1 0-1 1h-2v-1zM32 156v-1c0-1 1 0 1 0v-1h1v1s0-1 1-1h1v1h-1v1h-2-1zM25 160h-1c1 0 1-1 1-1v1h1v-1c1 0 1 1 1 1v-1h1v1l-1 1h-1c-1 0-1 0-1-1zM3 151l1 1c0 1 1 2 1 3 0 0-1-2-2-2s-1-1 0-2z" class="n"/><path d="M3 151c-1 1-1 2 0 2s1 1 2 1v1s-1-2-2-2-1-1 0-2z" class="q"/><path d="M2 151c0 1 1 1 1 1v-1H2zM2 152h0c0-1 0 0 0 0z" class="A"/><path d="M6 151v1c-1 1-2 2-1 3 0 0 1-2 2-2 0 0 0-1-1-2z" class="n"/><path d="M6 151c1 1 1 2 1 2-1 0-2 1-2 1v1s1-2 2-2c0 0 0-1-1-2z" class="q"/><path d="M7 151v0zM7 152c0-1 0 0 0 0z" class="A"/><path d="M7 154H5s-2-1-2 0c0 0-2 2-1 2h4c1 0 1-2 1-2z" class="r"/><path d="M2 156h4c0-1 1-1 1-2 0 0 0 2-1 2H2z" class="s"/><path d="M8 33c2 0 4-2 4-5 0-2-2-5-4-5-3 0-5 3-5 5 0 3 2 5 5 5zM240 72c3 0 5-3 5-5 0-3-2-5-5-5s-5 2-5 5c0 2 2 5 5 5zM153 18c3 0 5-2 5-5s-2-5-5-5-5 2-5 5 2 5 5 5zM17 63c5 0 8-4 8-8 0-5-3-8-8-8-4 0-8 3-8 8 0 4 4 8 8 8z" class="a"/><path d="M96 131v-1l2-2h1l2 2v1l-2-1v4h-1v-4l-1 1h-1z" class="t"/><path d="M99 126c1 0 2 0 2 1 1 0 2 1 2 2 1 1 1 2 1 3-1 1-1 2-2 2l-2 2c-1 0-3 0-3-1-1 0-2-1-3-1 0-1-1-2-1-3 0-2 1-3 2-4s2-1 4-1zm0-1c-2 0-3 0-4 1s-1 1-2 3v3c0 1 1 2 1 3 1 1 2 1 3 1 2 1 3 0 4 0s2-1 2-2c1-1 1-2 1-3 0-2 0-3-1-4s-3-2-4-2z" class="t"/></g></svg>