<svg xmlns="http://www.w3.org/2000/svg" width="100" height="100" viewBox="0 0 100 100">
    <g fill="#35485F">
        <rect x="48" y="53" width="27" height="13"/>
        <path d="M82.5 65.8C80.1 65.8 78.1 67.6 77.8 70L77 70 77 69.8 62.1 69.8C62 68.7 61.4 67.7 60.6 67L77 67 77 56 86 57 88 63.1 88 70 87.2 70C86.9 67.6 84.9 65.8 82.5 65.8ZM54.4 67L48 67 48 69.8 52.9 69.8C53 68.7 53.6 67.7 54.4 67ZM80 58L80 62 86 63 85 58 80 58Z"/>
        <circle cx="82.5" cy="70.5" r="3.5"/>
        <circle cx="57.5" cy="70.5" r="3.5"/>
    </g>
    <g fill="#1ABBE2">
        <polygon points="17 31 41 31 41 29 17 29"/>
        <path d="M18 25.9C21.6 26.4 25.3 26.6 28.9 26.6 32.6 26.6 36.3 26.4 40 25.9L39 24C35.6 24.4 32.3 24.6 28.9 24.6 25.6 24.6 22.3 24.4 19 24L18 25.9Z"/>
        <path d="M-11-0.6C-7.3-1.1-3.7-1.3-0.1-1.3 3.6-1.3 7.3-1.1 11-0.6L9.9 1.3C6.6 0.9 3.3 0.7-0.1 0.7 -3.4 0.7-6.7 0.9-10 1.3L-11-0.6Z" transform="translate(28.987227 35.297926)scale(1 -1)"/>
        <path d="M34.8 40.5L32.7 41.4C33.2 37.9 33.4 34.4 33.4 30.9 33.4 27 33.1 23.2 32.6 19.4L34.8 20.5C35.2 23.9 35.4 27.4 35.4 30.9 35.4 34.1 35.2 37.3 34.8 40.5Z"/>
        <path d="M23.2 40.3C22.8 37.1 22.6 34 22.6 30.8 22.6 27.3 22.8 23.8 23.3 20.3L25.4 19.4C24.9 23.2 24.6 27 24.6 30.8 24.6 34.3 24.8 37.9 25.3 41.4L23.2 40.3Z"/>
        <polygon points="30 42 28 42 28 18 30 18"/>
        <path d="M29 19C22.9 19 18 23.9 18 30 18 36.1 22.9 41 29 41 35.1 41 40 36.1 40 30 40 23.9 35.1 19 29 19ZM29 17C36.2 17 42 22.8 42 30 42 37.2 36.2 43 29 43 21.8 43 16 37.2 16 30 16 22.8 21.8 17 29 17Z"/>
    </g>
    <g fill="#A1AFB3">
        <rect x="44" y="31" width="4" height="2"/>
        <rect x="50" y="31" width="4" height="2"/>
        <rect x="56" y="31" width="4" height="2"/>
        <rect x="62" y="31" width="4" height="2"/>
        <rect x="64" y="35" width="2" height="4"/>
        <rect x="64" y="41" width="2" height="4"/>
        <rect x="64" y="47" width="2" height="4"/>
        <rect x="20" y="43" width="2" height="4"/>
        <rect x="20" y="49" width="2" height="4"/>
        <rect x="20" y="55" width="2" height="4"/>
        <rect x="24" y="57" width="4" height="2"/>
        <rect x="30" y="57" width="4" height="2"/>
        <rect x="36" y="57" width="4" height="2"/>
        <rect x="42" y="57" width="4" height="2"/>
    </g>
    <g fill="#D8D8D8">
        <path d="M49 100C48.2 100 47.4 99.9 46.6 99.9L46.8 97.9C47.5 97.9 48.2 98 49 98L49 100ZM44.6 99.7C43.8 99.6 43 99.5 42.2 99.4L42.6 97.4C43.3 97.5 44 97.6 44.8 97.7L44.6 99.7ZM40.2 99C39.5 98.9 38.7 98.7 37.9 98.5L38.4 96.6C39.1 96.8 39.9 96.9 40.6 97.1L40.2 99ZM36 98C35.2 97.8 34.4 97.5 33.7 97.3L34.4 95.4C35.1 95.6 35.8 95.8 36.5 96.1L36 98ZM31.8 96.6C31 96.3 30.3 96 29.6 95.6L30.4 93.8C31.1 94.1 31.8 94.4 32.5 94.7L31.8 96.6ZM27.8 94.8C27 94.4 26.3 94 25.6 93.7L26.6 91.9C27.3 92.3 27.9 92.6 28.6 93L27.8 94.8ZM23.9 92.6C23.2 92.2 22.6 91.8 21.9 91.3L23 89.7C23.7 90.1 24.3 90.5 24.9 90.9L23.9 92.6ZM20.3 90.2C19.6 89.7 19 89.2 18.4 88.7L19.7 87.2C20.2 87.7 20.8 88.1 21.4 88.5L20.3 90.2ZM16.9 87.4C16.3 86.9 15.7 86.3 15.1 85.8L16.5 84.4C17 84.9 17.6 85.4 18.1 85.9L16.9 87.4ZM13.7 84.4C13.1 83.8 12.6 83.2 12.1 82.6L13.6 81.3C14.1 81.9 14.6 82.4 15.1 83L13.7 84.4ZM10.8 81C10.3 80.4 9.8 79.8 9.4 79.1L11 78C11.4 78.6 11.9 79.2 12.3 79.8L10.8 81ZM8.2 77.5C7.8 76.8 7.4 76.2 7 75.5L8.7 74.5C9.1 75.1 9.5 75.7 9.9 76.3L8.2 77.5ZM6 73.7C5.6 73 5.2 72.3 4.9 71.6L6.7 70.8C7 71.4 7.4 72.1 7.7 72.7L6 73.7ZM4.1 69.8C3.8 69.1 3.5 68.3 3.2 67.6L5.1 66.9C5.3 67.6 5.6 68.3 5.9 68.9L4.1 69.8ZM2.5 65.7C2.3 64.9 2 64.2 1.8 63.4L3.8 62.9C4 63.6 4.2 64.3 4.4 65L2.5 65.7ZM1.3 61.5C1.1 60.7 1 59.9 0.8 59.2L2.8 58.8C2.9 59.5 3.1 60.3 3.3 61L1.3 61.5ZM0.5 57.2C0.4 56.4 0.3 55.6 0.2 54.8L2.2 54.7C2.3 55.4 2.4 56.1 2.5 56.8L0.5 57.2ZM0.1 52.8C0 52.1 0 51.3 0 50.5L2 50.5C2 51.2 2 51.9 2.1 52.7L0.1 52.8ZM0 48.5C0 47.7 0.1 46.9 0.1 46.1L2.1 46.3C2.1 47 2 47.7 2 48.5L0 48.5ZM0.3 44.1C0.4 43.3 0.5 42.6 0.7 41.8L2.6 42.1C2.5 42.9 2.4 43.6 2.3 44.3L0.3 44.1ZM1 39.8C1.2 39.1 1.4 38.3 1.6 37.5L3.5 38.1C3.3 38.8 3.1 39.5 3 40.2L1 39.8ZM2.1 35.6C2.3 34.9 2.6 34.1 2.8 33.4L4.7 34.1C4.5 34.7 4.2 35.4 4 36.1L2.1 35.6ZM3.5 31.5C3.8 30.8 4.1 30.1 4.4 29.3L6.3 30.2C6 30.8 5.7 31.5 5.4 32.2L3.5 31.5ZM5.3 27.5C5.7 26.8 6 26.1 6.4 25.5L8.1 26.5C7.8 27.1 7.4 27.7 7.1 28.4L5.3 27.5ZM7.4 23.7C7.8 23.1 8.3 22.4 8.7 21.8L10.3 22.9C9.9 23.5 9.5 24.1 9.2 24.7L7.4 23.7ZM9.9 20.2C10.3 19.5 10.8 18.9 11.3 18.3L12.8 19.6C12.4 20.2 11.9 20.7 11.5 21.3L9.9 20.2ZM12.6 16.8C13.1 16.2 13.6 15.6 14.2 15.1L15.6 16.5C15.1 17 14.6 17.5 14.1 18.1L12.6 16.8ZM15.6 13.7C16.2 13.1 16.7 12.6 17.3 12.1L18.6 13.6C18.1 14.1 17.5 14.6 17 15.1L15.6 13.7ZM18.9 10.8C19.5 10.4 20.1 9.9 20.7 9.4L21.9 11.1C21.3 11.5 20.7 11.9 20.2 12.4L18.9 10.8ZM22.4 8.3C23 7.9 23.7 7.5 24.3 7.1L25.3 8.8C24.7 9.2 24.1 9.5 23.5 9.9L22.4 8.3ZM26.1 6.1C26.8 5.7 27.4 5.3 28.1 5L29 6.8C28.3 7.1 27.7 7.5 27.1 7.8L26.1 6.1ZM30 4.2C30.7 3.8 31.4 3.6 32.1 3.3L32.8 5.2C32.1 5.4 31.5 5.7 30.8 6L30 4.2ZM34 2.6C34.7 2.3 35.5 2.1 36.2 1.9L36.7 3.8C36 4 35.4 4.2 34.7 4.5L34 2.6ZM38.1 1.4C38.9 1.2 39.7 1 40.4 0.9L40.8 2.9C40.1 3 39.4 3.2 38.7 3.3L38.1 1.4ZM42.4 0.6C43.1 0.4 43.9 0.3 44.7 0.3L44.9 2.3C44.1 2.3 43.4 2.4 42.7 2.5L42.4 0.6ZM46.7 0.1C47.4 0 48.2 0 49 0L49 2C48.3 2 47.6 2 46.9 2.1L46.7 0.1ZM51 0C51.8 0 52.5 0 53.3 0.1L53.1 2.1C52.4 2 51.7 2 51 2L51 0ZM55.3 0.3C56.1 0.3 56.8 0.4 57.6 0.6L57.3 2.5C56.6 2.4 55.8 2.3 55.1 2.3L55.3 0.3ZM59.6 0.9C60.3 1 61.1 1.2 61.8 1.4L61.3 3.3C60.6 3.2 59.9 3 59.2 2.9L59.6 0.9ZM63.8 1.9C64.5 2.1 65.3 2.3 66 2.6L65.3 4.5C64.6 4.2 64 4 63.3 3.8L63.8 1.9ZM67.9 3.3C68.6 3.6 69.3 3.8 70 4.2L69.2 6C68.5 5.7 67.9 5.4 67.2 5.2L67.9 3.3ZM71.8 5C72.5 5.3 73.2 5.7 73.9 6.1L72.9 7.8C72.3 7.5 71.6 7.1 71 6.8L71.8 5ZM75.6 7.1C76.3 7.5 77 7.9 77.6 8.3L76.5 9.9C75.9 9.5 75.3 9.2 74.6 8.8L75.6 7.1ZM79.3 9.4C79.9 9.9 80.5 10.4 81.1 10.8L79.8 12.4C79.3 11.9 78.7 11.5 78.1 11.1L79.3 9.4ZM82.7 12.1C83.2 12.6 83.8 13.1 84.4 13.7L83 15.1C82.4 14.6 81.9 14.1 81.4 13.6L82.7 12.1ZM85.8 15.1C86.3 15.6 86.9 16.2 87.4 16.8L85.9 18.1C85.4 17.5 84.9 17 84.4 16.5L85.8 15.1ZM88.7 18.3C89.2 18.9 89.7 19.5 90.1 20.2L88.5 21.3C88.1 20.7 87.6 20.2 87.2 19.6L88.7 18.3ZM91.3 21.8C91.7 22.4 92.2 23.1 92.6 23.7L90.8 24.7C90.5 24.1 90.1 23.5 89.7 22.9L91.3 21.8ZM93.6 25.5C94 26.1 94.3 26.8 94.7 27.5L92.9 28.4C92.5 27.7 92.2 27.1 91.9 26.5L93.6 25.5ZM95.6 29.3C95.9 30.1 96.2 30.8 96.5 31.5L94.6 32.2C94.3 31.5 94 30.8 93.7 30.2L95.6 29.3ZM97.2 33.4C97.4 34.1 97.7 34.9 97.9 35.6L96 36.1C95.8 35.4 95.5 34.7 95.3 34.1L97.2 33.4ZM98.4 37.5C98.6 38.3 98.8 39.1 99 39.8L97 40.2C96.8 39.5 96.7 38.8 96.5 38.1L98.4 37.5ZM99.3 41.8C99.5 42.6 99.6 43.3 99.7 44.1L97.7 44.3C97.6 43.6 97.5 42.9 97.4 42.1L99.3 41.8ZM99.8 46.1C99.9 46.9 99.9 47.7 100 48.5L98 48.5C97.9 47.7 97.9 47 97.9 46.3L99.8 46.1ZM100 50.5C100 51.3 100 52.1 99.9 52.8L97.9 52.7C98 51.9 98 51.2 98 50.5L100 50.5ZM99.8 54.8C99.7 55.6 99.6 56.4 99.5 57.2L97.5 56.8C97.6 56.1 97.7 55.4 97.8 54.7L99.8 54.8ZM99.2 59.2C99 59.9 98.8 60.7 98.7 61.5L96.7 61C96.9 60.3 97 59.5 97.2 58.8L99.2 59.2ZM98.2 63.4C98 64.2 97.7 64.9 97.5 65.7L95.6 65C95.8 64.3 96 63.6 96.2 62.9L98.2 63.4ZM96.8 67.6C96.5 68.3 96.2 69.1 95.9 69.8L94.1 68.9C94.4 68.3 94.7 67.6 94.9 66.9L96.8 67.6ZM95.1 71.6C94.7 72.3 94.4 73 94 73.7L92.3 72.7C92.6 72.1 93 71.4 93.3 70.8L95.1 71.6ZM93 75.5C92.6 76.2 92.2 76.8 91.7 77.5L90.1 76.3C90.5 75.7 90.9 75.1 91.3 74.5L93 75.5ZM90.6 79.1C90.1 79.8 89.7 80.4 89.2 81L87.6 79.8C88.1 79.2 88.5 78.6 89 78L90.6 79.1ZM87.9 82.6C87.4 83.2 86.8 83.8 86.3 84.4L84.9 83C85.4 82.4 85.9 81.9 86.4 81.3L87.9 82.6ZM84.9 85.8C84.3 86.3 83.7 86.9 83.1 87.4L81.8 85.9C82.4 85.4 82.9 84.9 83.5 84.4L84.9 85.8ZM81.6 88.7C81 89.2 80.4 89.7 79.7 90.2L78.6 88.5C79.2 88.1 79.8 87.7 80.3 87.2L81.6 88.7ZM78.1 91.3C77.4 91.8 76.8 92.2 76.1 92.6L75.1 90.9C75.7 90.5 76.3 90.1 76.9 89.7L78.1 91.3ZM74.3 93.7C73.6 94 72.9 94.4 72.2 94.8L71.4 93C72 92.6 72.7 92.3 73.3 91.9L74.3 93.7ZM70.4 95.6C69.7 96 68.9 96.3 68.2 96.6L67.5 94.7C68.2 94.4 68.9 94.1 69.6 93.8L70.4 95.6ZM66.3 97.3C65.6 97.5 64.8 97.8 64 98L63.5 96.1C64.2 95.8 64.9 95.6 65.6 95.4L66.3 97.3ZM62.1 98.5C61.3 98.7 60.5 98.9 59.7 99L59.4 97.1C60.1 96.9 60.9 96.8 61.6 96.6L62.1 98.5ZM57.8 99.4C57 99.5 56.2 99.6 55.4 99.7L55.2 97.7C56 97.6 56.7 97.5 57.4 97.4L57.8 99.4ZM53.4 99.9C52.6 99.9 51.8 100 51 100L51 98C51.7 98 52.5 97.9 53.2 97.9L53.4 99.9Z"/>
    </g>
</svg>