<svg xmlns="http://www.w3.org/2000/svg" width="665" height="462">
    <style>.a{fill:#f2f2f2}.b{fill:#3f3d56}.c{fill:#2f2e41}.d{fill:#fff}.e{fill:#6c63ff}</style>
    <g fill="none">
        <path d="M126 99c21 0 38-17 38-38s-17-38-38-38-38 17-38 38 17 38 38 38z" fill="#FF6584"/>
        <path d="M311 204c0 89-53 121-119 121S73 293 73 204C73 114 192 0 192 0s119 114 119 204z" class="a"/>
        <path class="b" d="M188 311l1-75 51-93-51 81 1-34 35-67-35 59 1-61 37-54-37 44V0l-3 147v-6l-38-58 37 70-3 68v-2l-44-61 44 67-1 9v1l-9 172h12l2-89 43-68z"/>
        <path d="M665 241c0 73-44 99-97 99-54 0-98-26-98-99 0-74 98-167 98-167s97 93 97 167z" class="a"/>
        <path class="b" d="M564 328l1-61 42-76-42 66 1-27 28-55-28 47 1-49 30-44-30 36V74l-3 120v-5l-31-47 31 57-3 55v-1l-36-50 36 55-1 7v1l-7 141h10l1-73 36-55z"/>
        <path d="M329 421c182 0 329-8 329-17s-147-17-329-17S0 395 0 404s147 17 329 17zM530 434c31 0 56-1 56-2 0-2-25-3-56-3-32 0-57 1-57 3 0 1 25 2 57 2zM326 462c31 0 56-1 56-3 0-1-25-3-56-3-32 0-57 2-57 3 0 2 25 3 57 3zM171 443c71 0 129-3 129-7s-58-6-129-6-129 2-129 6 58 7 129 7z" class="b"/>
        <path d="M58 383c26 0 46-21 46-47s-20-47-46-47-47 21-47 47 21 47 47 47z" class="c"/>
        <path class="c" d="M50 373H36v25l14 1zM79 373H64v26h14z"/>
        <path d="M59 399c0-2-5-5-12-5-6 0-11 2-11 5-1 2 5 4 11 4 7 0 12-2 12-4zM88 399c0-3-6-5-12-5-7 0-12 2-12 4 0 3 5 5 12 5 6 0 12-2 12-4z" class="c"/>
        <path d="M59 340c9 0 16-7 16-16 0-8-7-16-16-16s-16 8-16 16c0 9 7 16 16 16z" class="d"/>
        <path d="M59 330c3 0 5-3 5-6s-2-5-5-5-5 2-5 5 2 6 5 6z" class="b"/>
        <path d="M13 292c-4-17 8-34 27-38s37 7 41 24c3 17-9 23-28 27s-37 4-40-13z" class="e"/>
        <path d="M129 362c0 33-19 45-43 45h-2c-1 0-2 0-3-1-22-1-39-13-39-44s41-71 44-74c0 0 43 42 43 74z" class="e"/>
        <path d="M84 402l16-23-16 25v3c-1 0-2 0-3-1l1-32v-1l1-3-16-24 16 22v1l1-25-14-26 14 22 2-52-1 41 14-16-14 19v22l13-21-13 25v12l18-30-18 34-1 28z" class="b"/>
        <path d="M423 383c26 0 47-21 47-47s-21-47-47-47-47 21-47 47 21 47 47 47z" class="c"/>
        <path class="c" d="M427 373l-14 4 8 25 13-5zM454 365l-14 4 8 24 14-4z"/>
        <path d="M433 403c7-2 11-6 10-8 0-2-6-3-12-1s-11 6-10 8 6 3 12 1zM460 394c7-2 11-6 11-8-1-2-7-3-13-1s-11 6-10 8 6 3 12 1z" class="c"/>
        <path d="M420 340c9 0 16-7 16-16s-7-16-16-16c-8 0-16 7-16 16s8 16 16 16z" class="d"/>
        <path d="M420 329c3 0 6-2 6-5s-3-5-6-5c-2 0-5 2-5 5s3 5 5 5z" class="b"/>
        <path d="M367 307c-9-15-3-35 14-44 17-10 37-5 46 10 8 15-2 25-18 34-17 10-34 16-42 0zM339 356c0 31-18 41-40 41h-4c-20-2-35-13-35-41s36-65 39-68c0 0 40 38 40 68z" class="e"/>
        <path d="M298 392l14-20-14 23v2h-3l1-30 1-3-15-23 15 21 1-23-13-23 13 19 1-47v38l12-15-12 18v20l11-19-11 22-1 11 17-27-17 31v25z" class="b"/>
        <path d="M496 369c0 33-20 44-44 44h-4c-22-2-39-14-39-44 0-31 40-71 43-74 0 0 44 41 44 74z" class="e"/>
        <path d="M451 408l16-22-16 25v2h-3l1-33v-3l-16-25 16 23 2-25-14-25 14 21 1-51v40l14-16-14 20v22l12-21-12 24-1 12 19-29-19 34v27z" class="b"/>
        <path d="M426 364c2-4-7-11-18-17-12-5-23-7-25-3-1 3 7 11 18 16 12 6 23 8 25 4zM65 360c1-4-7-11-19-16s-23-6-25-2c-1 4 7 11 19 16s23 5 25 2z" class="c"/>
    </g>
</svg>
