<svg width="906" height="769" xmlns="http://www.w3.org/2000/svg">
    <defs>
        <linearGradient x1="57.93%" y1="80.31%" x2="42.07%" y2="19.7%" id="a">
            <stop stop-color="gray" stop-opacity=".25" offset="0%"/>
            <stop stop-color="gray" stop-opacity=".12" offset="54%"/>
            <stop stop-color="gray" stop-opacity=".1" offset="100%"/></linearGradient><linearGradient x1="25.51%" y1="2.75%" x2="25.51%" y2="97.83%" id="b">
        <stop stop-color="#C7C3E6" offset="0%"/>
        <stop stop-color="#6C63FF" stop-opacity="0" offset="100%"/></linearGradient><linearGradient x1="9099.57%" y1="187886.37%" x2="10647.29%" y2="170049.28%" id="c">
        <stop stop-color="gray" stop-opacity=".25" offset="0%"/>
        <stop stop-color="gray" stop-opacity=".12" offset="54%"/>
        <stop stop-color="gray" stop-opacity=".1" offset="100%"/></linearGradient><linearGradient x1="5990.43%" y1="150590.18%" x2="7538.15%" y2="132753.78%" id="d">
        <stop stop-color="gray" stop-opacity=".25" offset="0%"/>
        <stop stop-color="gray" stop-opacity=".12" offset="54%"/>
        <stop stop-color="gray" stop-opacity=".1" offset="100%"/></linearGradient><linearGradient x1="44530.02%" y1="-686.22%" x2="43692.01%" y2="-2033.13%" id="e">
        <stop stop-color="gray" stop-opacity=".25" offset="0%"/>
        <stop stop-color="gray" stop-opacity=".12" offset="54%"/>
        <stop stop-color="gray" stop-opacity=".1" offset="100%"/>
    </linearGradient>
    </defs>
    <g fill="none" fill-rule="evenodd">
        <g fill-rule="nonzero">
            <g opacity=".8" transform="translate(236 42)" fill="url(#a)">
                <path d="M131.56 177.78c61.9-12.84 104-62.13 94.06-110.1-9.94-47.96-68.18-76.44-130.07-63.6C33.65 16.9-8.45 66.2 1.49 114.15c9.95 47.97 68.18 76.45 130.07 63.62z"/>
            </g>
            <path d="M367.17 217.85c60.51-12.55 101.7-60.75 91.96-107.65-9.72-46.9-66.67-74.75-127.19-62.2-60.51 12.55-101.7 60.75-91.97 107.65 9.73 46.9 66.68 74.75 127.2 62.2z" fill="#6C63FF"/>
            <path d="M259.65 161.41c-9.73-46.9 31.44-95.1 91.96-107.64 18.77-4 38.16-4.02 56.94-.05-21.96-9.02-48.8-11.7-76.37-5.98-60.52 12.55-101.7 60.74-91.97 107.64 6.53 31.5 34.35 54.4 70.25 62.25-26.23-10.8-45.52-30.68-50.81-56.22z" fill="#FFF" opacity=".1"/>
            <path d="M374.75 169.25S523.38 267.94 589 427.14s337.56 354.68 337.56 354.68H172.45s106.74-50.6 101.15-306.28c-5.6-255.69 101.14-306.3 101.14-306.3z" fill="url(#b)" opacity=".2" transform="translate(-1)"/>
            <g opacity=".3" transform="translate(348 374)" fill="url(#c)">
                <path d="M99.25 85.1l3.63-29.97a49 49 0 00-29-50.58l.06-.06A48.02 48.02 0 0060.6.87l-.14-.02-.15-.02a48.08 48.08 0 00-18.11 1.22 48.72 48.72 0 00-9.9 3.8c-.66.35-1.4.74-2.07 1.13a48.48 48.48 0 00-5.83 3.93 48 48 0 00-6.8 6.46A48.47 48.47 0 006.05 43.4L.37 90.6a48.37 48.37 0 003.66 25.14c.45 1.05.95 2.07 1.44 3.09.35.67.72 1.34 1.1 2 .57.97 1.2 1.93 1.8 2.88a54.16 54.16 0 004.18 5.35 49.2 49.2 0 009.46 8.16 48.32 48.32 0 0018.27 7.3l.29.04c.2-.64.44-1.27.72-1.88 1.65-3.62 5.18-6.66 9.16-6.62.28 0 .58.03.87.06 2.07.28 4.22 1.1 6.2 1.31a5.2 5.2 0 004.28-.94c3.31-2.75.64-8.72 3.26-12.13.12-.15.25-.3.4-.44-.06-.05-.12-.1-.16-.16 2.14-2.04 5.77-1.73 8.8-1.33 3.3.45 7.44.35 9.05-2.6 1.08-2.01.43-4.6 1.43-6.68 1.16-2.4 4.11-3.25 6.78-3.42l.14.01c5.4 1.02 10.13-3.51 8.63-8.8-1.94-7.06-1.08-14.27-.88-15.84z"/>
            </g>
            <path d="M389.67 514.14c1.6-3.52 4.99-6.46 8.83-6.39 3.85.08 8.06 2.85 10.96.42 3.97-3.31-1.01-11.44 6.1-13.59a9.7 9.7 0 014.58-.15c3.32.61 8.4 1.03 10.17-2.27 1.05-1.94.42-4.44 1.4-6.43 1.1-2.3 3.97-3.16 6.54-3.3l.13.02c5.2.99 9.77-3.4 8.33-8.5-1.91-6.78-1.07-13.73-.89-15.23l3.49-28.92a47.22 47.22 0 00-41.08-52.39 47.17 47.17 0 00-52.35 41.08l-5.51 45.48a47.22 47.22 0 0038.57 52c.2-.62.45-1.23.73-1.83z" fill="#FFF"/>
            <path d="M386.35 412.94a5.09 5.09 0 10-2.07-9.96 5.09 5.09 0 002.07 9.96zM416.65 416.6a5.09 5.09 0 10-2.07-9.97 5.09 5.09 0 002.07 9.97z" fill="#000" opacity=".2"/>
            <path d="M403.11 430.65c.5-4.18-1.34-7.85-4.13-8.19-2.8-.33-5.46 2.79-5.97 6.97-.5 4.18 1.35 7.85 4.14 8.19 2.79.33 5.46-2.79 5.96-6.97z" fill="#E0E0E0"/>
            <path d="M499.71 393.18a7.63 7.63 0 10-3.1-14.94 7.63 7.63 0 003.1 14.94zM520.16 372.79a3.81 3.81 0 10-1.55-7.47 3.81 3.81 0 001.55 7.47z" fill="#FFF"/>
            <g opacity=".5">
                <g opacity=".3" fill="url(#d)" transform="translate(295 71)">
                    <path d="M99.82 85.2l3.63-29.96a49 49 0 00-29-50.59l.06-.06A48.02 48.02 0 0061.16.97l-.14-.02-.16-.01a48.08 48.08 0 00-18.1 1.21 48.71 48.71 0 00-9.91 3.8c-.66.36-1.4.74-2.07 1.13a48.5 48.5 0 00-5.82 3.94 48.11 48.11 0 00-6.8 6.45A48.46 48.46 0 006.61 43.5L.93 90.7a48.37 48.37 0 003.67 25.15c.45 1.04.94 2.07 1.43 3.08.36.67.72 1.34 1.1 2 .57.97 1.2 1.93 1.8 2.88a49.18 49.18 0 0013.64 13.5 48.28 48.28 0 0018.28 7.3l.28.06c.2-.64.45-1.27.73-1.88 1.64-3.63 5.18-6.67 9.15-6.63.29 0 .58.03.88.06 2.06.28 4.21 1.1 6.2 1.31a5.2 5.2 0 004.28-.94c3.3-2.75.63-8.72 3.26-12.12.12-.16.25-.31.39-.45l-.16-.15c2.15-2.04 5.77-1.73 8.81-1.34 3.29.45 7.43.35 9.04-2.6 1.08-2 .44-4.6 1.43-6.68 1.17-2.4 4.12-3.25 6.79-3.42l.13-.02c5.4 1.02 10.12-3.52 8.63-8.8-1.93-7.03-1.08-14.24-.87-15.8z"/>
                </g>
                <path d="M337.23 211.25c1.6-3.53 5-6.47 8.84-6.4 3.84.08 8.05 2.86 10.95.43 3.98-3.32-1.01-11.44 6.1-13.6a9.72 9.72 0 014.58-.15c3.32.62 8.4 1.03 10.18-2.27 1.04-1.94.42-4.44 1.39-6.42 1.11-2.31 3.98-3.17 6.54-3.3l.13.01c5.21.99 9.78-3.4 8.33-8.49-1.91-6.79-1.07-13.73-.89-15.24l3.49-28.91a47.22 47.22 0 00-41.07-52.4 47.17 47.17 0 00-52.35 41.09l-5.52 45.47a47.23 47.23 0 0038.57 52c.21-.62.45-1.23.73-1.82z" fill="#FFF"/>
                <path d="M333.92 110.05a5.09 5.09 0 10-2.07-9.97 5.09 5.09 0 002.07 9.96zM364.22 113.7a5.09 5.09 0 10-2.07-9.96 5.09 5.09 0 002.07 9.96z" fill="#000" opacity=".2"/>
            </g>
            <path d="M449.56 85.94a68.43 68.43 0 015.63 16.4c9.72 46.9-31.45 95.09-91.96 107.64-49.54 10.24-96.67-6.54-117.45-38.67 18.12 36.77 68.46 56.86 121.57 45.84 60.52-12.54 101.7-60.74 91.97-107.64a68.94 68.94 0 00-9.76-23.57z" fill="#000" opacity=".1"/>
            <g opacity=".8" transform="translate(130 94)" fill="url(#e)">
                <path d="M239.52 135.2c125.16-25.95 221.13-73.52 214.34-106.24C447.07-3.77 340.11-9.26 214.94 16.7 89.78 42.65-6.18 90.22.6 122.95c6.8 32.72 113.76 38.21 238.92 12.26z"/>
            </g>
            <path d="M345.35 112.66c-121.03 25.1-213.84 71.1-207.28 102.75l438.32-90.9c-6.56-31.65-110-36.95-231.04-11.86zM369.12 227.25c121.03-25.1 213.84-71.1 207.27-102.74l-438.31 90.9c6.56 31.64 110 36.94 231.04 11.84z" fill="#FFF"/>
            <path d="M369.12 227.25c121.03-25.1 213.84-71.1 207.27-102.74l-438.31 90.9c6.56 31.64 110 36.94 231.04 11.84z" fill="#000" opacity=".05"/>
            <path d="M445.56 136.04L262.7 173.96a13.46 13.46 0 00-10.44 15.91l.73 3.54a13.46 13.46 0 0015.91 10.45l182.85-37.92a13.46 13.46 0 0010.44-15.91l-.74-3.54a13.46 13.46 0 00-15.9-10.45z" fill="#000" opacity=".05"/>
            <path d="M109.63 123.2a2.87 2.87 0 01-2.28-3.08v-.32a1.44 1.44 0 00-2.1-1.07 1.43 1.43 0 00-.72.97 2.87 2.87 0 01-3.08 2.27h-.32a1.43 1.43 0 00-1.07 2.1 1.43 1.43 0 00.97.74 2.88 2.88 0 012.27 3.07v.32a1.44 1.44 0 002.73.41c.05-.1.08-.2.1-.31a2.87 2.87 0 013.08-2.24h.32a1.43 1.43 0 00.41-2.73c-.1-.06-.2-.1-.31-.13zM547.67 276.67a2.87 2.87 0 01-2.24-3.08v-.33a1.45 1.45 0 00-1.21-1.22 1.43 1.43 0 00-1.61 1.12 2.86 2.86 0 01-3.08 2.28h-.32a1.44 1.44 0 00-.1 2.83 2.88 2.88 0 012.24 3.08c-.02.1-.01.22 0 .32a1.44 1.44 0 002.73.42c.04-.1.07-.2.09-.32a2.87 2.87 0 013.08-2.23h.33a1.44 1.44 0 00.4-2.73c-.1-.06-.2-.1-.31-.14zM140.18 474.54a2.88 2.88 0 01-2.27-3.07v-.33a1.44 1.44 0 00-2.1-1.06c-.28.14-.5.37-.63.65-.04.1-.08.2-.1.31a2.87 2.87 0 01-3.07 2.27h-.32a1.44 1.44 0 00-.1 2.84 2.88 2.88 0 012.27 3.07v.32a1.44 1.44 0 002.73.42c.04-.1.08-.2.1-.32a2.87 2.87 0 013.07-2.23h.33a1.44 1.44 0 00.4-2.73c-.09-.06-.2-.1-.3-.14zM45.56 229.9a2.87 2.87 0 01-2.24-3.09v-.32a1.44 1.44 0 00-2.82-.1 2.86 2.86 0 01-3.07 2.27h-.33a1.44 1.44 0 00-.1 2.84 2.87 2.87 0 012.27 3.07v.32a1.44 1.44 0 002.73.41c.05-.1.08-.2.1-.31a2.87 2.87 0 013.08-2.24h.32a1.43 1.43 0 001.07-2.1c-.15-.28-.38-.5-.66-.63-.1-.06-.23-.1-.35-.13zM483.35 4.98a2.87 2.87 0 01-2.24-3.08v-.33a1.44 1.44 0 00-2.1-1.06c-.28.14-.5.37-.63.66l-.1.3a2.87 2.87 0 01-3.07 2.24h-.33a1.44 1.44 0 00-.43 2.81c.1.05.2.09.3.1A2.87 2.87 0 01477 9.72a1.48 1.48 0 00.4 1.17 1.44 1.44 0 002.37-.49c.05-.1.08-.2.1-.31a2.86 2.86 0 013.07-2.24h.33a1.44 1.44 0 00.4-2.73c-.1-.06-.2-.1-.32-.13z" fill="#4D8AF0" opacity=".5"/>
            <g opacity=".5" fill="#47E6B1">
                <path d="M125.4 279.64l-2.3.48 2.7 13 2.3-.47z"/>
                <path d="M132.34 286.18l-.48-2.3-13 2.7.47 2.3z"/>
            </g>
            <g opacity=".5" fill="#47E6B1">
                <path d="M663.62 104.16l-2.3.48 2.7 13 2.3-.47z"/>
                <path d="M670.56 110.7l-.48-2.3-13 2.7.47 2.3z"/>
            </g>
            <g opacity=".5" fill="#47E6B1">
                <path d="M631.39 333.6l-2.3.47 2.7 13.01 2.3-.47z"/>
                <path d="M638.33 340.14l-.48-2.3-13 2.7.47 2.3z"/>
            </g>
            <path d="M565.16 52.72a4.69 4.69 0 10-1.9-9.19 4.69 4.69 0 001.9 9.19zM5.58 113.67a4.69 4.69 0 10-1.9-9.19 4.69 4.69 0 001.9 9.19zM198.08 349.2a4.69 4.69 0 10-1.9-9.18 4.69 4.69 0 001.9 9.18z" fill="#F55F44" opacity=".5"/>
            <path d="M202.67 186.63c14.37-2.98 25.52-7.8 24.9-10.75-.6-2.96-12.75-2.94-27.12.04-14.37 2.98-25.52 7.79-24.9 10.75.61 2.96 12.76 2.94 27.12-.04zM211.09 227.2c14.37-2.98 25.51-7.8 24.9-10.75-.61-2.96-12.76-2.94-27.13.04-14.36 2.98-25.51 7.79-24.9 10.75.61 2.96 12.76 2.94 27.13-.04zM498.8 125.23c14.36-2.98 25.51-7.8 24.9-10.76-.62-2.95-12.76-2.94-27.13.04s-25.52 7.8-24.9 10.75c.61 2.96 12.76 2.95 27.12-.03zM507.2 165.8c14.38-2.98 25.53-7.8 24.91-10.76-.61-2.95-12.76-2.94-27.13.04-14.36 2.98-25.51 7.8-24.9 10.75.61 2.96 12.76 2.95 27.13-.03zM349.42 132.25c14.36-2.98 25.51-7.8 24.9-10.75-.61-2.96-12.76-2.94-27.13.03-14.37 2.98-25.51 7.8-24.9 10.76.61 2.96 12.76 2.94 27.13-.04zM356.96 72.4c14.37-2.98 25.52-7.79 24.9-10.75-.61-2.96-12.76-2.94-27.13.04-14.36 2.98-25.51 7.8-24.9 10.75.61 2.96 12.76 2.94 27.13-.03zM311.98 105.68c14.37-2.98 25.52-7.8 24.9-10.75-.6-2.96-12.75-2.94-27.12.04-14.37 2.97-25.52 7.79-24.9 10.75.61 2.96 12.75 2.94 27.12-.04zM409.7 95.8c14.36-2.98 25.51-7.8 24.9-10.75-.62-2.96-12.76-2.95-27.13.03s-25.52 7.8-24.9 10.76c.6 2.96 12.75 2.94 27.12-.04zM365.92 211.86c14.37-2.98 25.52-7.8 24.9-10.75-.6-2.96-12.75-2.95-27.12.03-14.37 2.98-25.52 7.8-24.9 10.76.61 2.96 12.76 2.94 27.12-.04z" fill="#000" opacity=".05"/>
        </g>
    </g>
</svg>
