<svg xmlns="http://www.w3.org/2000/svg" width="250" height="46">
	<style>.a{fill:#494440}.b{fill:#6f39cd}</style>
  <path d="M73.5 15h-5.6l.1 19.8c0 .4-.4.7-.7.7h-4.5c-.4 0-.7-.3-.7-.7V15h-5.5c-.4 0-.7-.2-.7-.6v-3.5c0-.4.3-.6.7-.7h16.9c.3 0 .7.3.7.7v3.5c0 .4-.4.6-.7.6zM85.6 35.8c-5.6 0-10.1-3.1-10.1-10.9v-4.1C75.5 13 80 9.9 85.6 9.9s10 3 10.1 10.9v4.1c0 7.8-4.5 10.9-10.1 10.9zm4.2-15c0-4-1.4-5.8-4.2-5.8-2.9 0-4.2 1.8-4.2 5.8v4.1c0 4 1.3 5.8 4.2 5.8 2.8 0 4.2-1.8 4.2-5.8v-4.1zM114.5 15H109v19.8c0 .3-.3.6-.7.6h-4.5c-.3 0-.6-.3-.6-.6V15h-5.6c-.4 0-.7-.3-.7-.6v-3.5c0-.4.3-.7.7-.7h16.9c.4 0 .7.3.7.7v3.5c0 .3-.3.6-.7.6zM138.4 10.9L133.3 32c-.7 3.2-3.2 3.7-5.6 3.7-2.3 0-4.8-.5-5.6-3.7L117 10.9v-.1c0-.3.2-.6.6-.6h4.7c.3 0 .6.3.7.6l4.2 19.6c.1.4.2.5.5.5s.4-.1.5-.5l4.2-19.6c.1-.3.3-.6.7-.6h4.7c.4 0 .6.2.6.6v.1zM148 35.7c-2.7 0-4.7-.3-6.4-.7-.4-.1-.7-.3-.7-.7V31c0-.5.2-.7.6-.7h.1c1.4.2 5.1.4 6.5.4 2.3 0 3-.7 3-2.3 0-1-.5-1.6-2.3-2.6l-4.7-2.8c-3.1-1.9-4-4-4-6.5 0-3.7 2.1-6.6 8.7-6.6 2.5 0 5.9.4 7.2.7.3.1.5.3.5.7v3.4c0 .3-.1.6-.5.6h-.1c-1-.1-4.9-.4-7.2-.4-2 0-2.7.6-2.7 1.8 0 .9.5 1.4 2.3 2.4l4.4 2.3c3.5 1.9 4.6 4.1 4.6 6.9 0 3.6-2.4 7.4-9.3 7.4zM29.6 19.6c-.9-.7-8.1-2.7-14-4.1-.1 4.6.2 9.5.8 10.4.9.8 8.1 2.8 14.1 4.2 0-4.6-.3-9.6-.9-10.5z" class="a"/>
  <path d="M23 0C10.3 0 0 10.3 0 23s10.3 23 23 23c12.8 0 23.1-10.3 23.1-23S35.7 0 23 0zm15.6 31.5c-.6.2-4.1-.5-8.2-1.4 0 3.9-.3 7.6-.8 8.1-1.5.5-20.7-4.3-22.1-5.6C6.3 31 6.3 15.1 7.5 14c.5-.2 4 .5 8.1 1.4 0-3.9.3-7.6.8-8 1.5-.6 20.7 4.3 22.2 5.5 1.1 1.7 1.1 17.5 0 18.6z" class="a"/>
  <path d="M178.4 28.8c0 .2 0 .2-.1.3 0 0-.1.1-.3.1-.5.2-1.4.3-2.5.3-.6 0-1.3-.1-1.9-.3-.5-.2-1.1-.5-1.5-.9-.5-.4-.9-.9-1.1-1.6-.3-.7-.4-1.6-.4-2.5v-2.1c0-1 .1-1.8.4-2.5.2-.7.6-1.2 1.1-1.7.4-.4 1-.7 1.5-.9.6-.1 1.3-.2 1.9-.2.6 0 1.1 0 1.6.1.4 0 .8.1.9.1.3.1.4.2.4.4V19c0 .3-.1.4-.3.4h-.1c-.5-.1-1-.1-1.3-.1-.3 0-.7-.1-1.2-.1-.4 0-.7.1-1 .3-.4.2-.6.5-.8.9-.1.4-.2 1-.2 1.7v2.1c0 .7.1 1.3.2 1.7.2.4.5.7.8.9.3.1.6.2 1.1.2H176.9c.2 0 .4-.1.7-.1h.5c.2 0 .3.1.3.3v1.6zM196.7 29c0 .1-.1.2-.1.3-.1 0-.2.1-.3.1h-2.2c-.1 0-.2-.1-.2-.1-.1-.1-.1-.2-.1-.3v-4.1h-3.6V29c0 .1-.1.2-.1.3-.1 0-.2.1-.3.1h-2.2c-.1 0-.1-.1-.2-.1-.1-.1-.1-.2-.1-.3v-8.5c0-1 .2-1.7.5-2.3.4-.5.8-.9 1.4-1.1.6-.2 1.3-.3 2.2-.3h1.2c.6 0 1.1 0 1.6.1.5.2 1 .3 1.3.6.4.3.6.7.8 1.1.2.5.3 1.1.3 1.9l.1 8.5zm-2.9-6.4v-2.1c0-.3 0-.6-.1-.7-.1-.2-.2-.3-.4-.4-.2-.1-.4-.1-.7-.1h-1.2c-.5 0-.8.1-1 .2-.2.2-.3.5-.3 1v2.1h3.7zM215.7 29.1c0 .2-.1.2-.3.2h-2.6-.1c-.1-.1-.1-.2-.2-.3l-2.2-4.2h-1.4V29c0 .1-.1.2-.1.2-.1.1-.2.1-.3.1h-2.1c-.1 0-.2 0-.3-.1 0 0-.1-.1-.1-.2V17.8c0-.3.1-.5.2-.6.1-.1.3-.2.6-.2.9-.2 2-.3 3.4-.3.7 0 1.4.1 2 .2.6.2 1.2.4 1.6.7.5.3.8.7 1.1 1.2.2.5.3 1.1.4 1.9v.2c0 .8-.2 1.5-.6 2.1-.4.5-1 1-1.6 1.2l2.5 4.8c.1 0 .1.1.1.1zm-3.3-8.2v-.2c0-.5-.2-.9-.6-1.2-.3-.2-.9-.3-1.6-.3h-1.3v3.2c.2.1.6.1 1.2.1.8 0 1.4-.1 1.8-.4.3-.2.5-.6.5-1.2zM233.7 24.1c0 1.8-.5 3.2-1.4 4.1-.9.8-2.1 1.3-3.6 1.3s-2.6-.4-3.6-1.3c-.9-.9-1.3-2.3-1.3-4.1v-2c0-1.8.4-3.2 1.3-4.1.9-.8 2.1-1.3 3.6-1.3.8 0 1.4.1 2 .3.6.2 1.1.6 1.6 1 .4.4.8 1 1 1.7.3.6.4 1.5.4 2.4v2zm-2.9 0v-2c0-1-.2-1.7-.5-2.2-.3-.4-.9-.6-1.6-.6-.4 0-.8.1-1.1.3-.3.2-.6.5-.7.9-.2.4-.2 1-.2 1.6v2c0 .7 0 1.2.2 1.6.1.5.4.8.7 1 .3.2.7.3 1.1.3.7 0 1.3-.2 1.6-.7.3-.5.5-1.2.5-2.2zM250 28.9c0 .2-.1.3-.3.4-.7.1-1.6.2-2.8.2-.6 0-1.1-.1-1.6-.2s-.9-.3-1.3-.5c-.4-.3-.6-.6-.9-1.1-.2-.5-.3-1.1-.3-1.8v-8.7c0-.1.1-.2.1-.2.1-.1.2-.1.3-.1h2.2s.1 0 .2.1.1.1.1.2v8.7c0 .4.1.7.2.9.2.1.5.2.9.2h2.9s.1.1.2.1c.1.1.1.2.1.3v1.5z" class="b"/>
</svg>
